<svg width="326" height="80" viewBox="0 0 326 80" fill="none" xmlns="http://www.w3.org/2000/svg">
<path d="M67.71 62.4081V0H5.42334V62.4081L36.5599 80L67.71 62.4081Z" fill="#4E321D"/>
<path d="M72.7826 42.5766C69.0187 40.5665 62.5566 41.8346 57.0659 42.6441L56.9714 55.892L72.9175 55.9864C72.9175 55.9864 73.1198 45.1668 73.0794 43.0758C73.0929 42.8734 72.9714 42.6711 72.7826 42.5766Z" fill="#4E321D"/>
<path d="M0.324048 60.6003C4.04749 62.8398 10.5635 61.4502 16.1891 60.6138L16.2701 47.3659L0.324048 47.2715C0.324048 47.2715 -0.0671827 59.6964 0.17565 60.4519C0.17565 60.4924 0.310557 60.6138 0.324048 60.6003Z" fill="#4E321D"/>
<path d="M66.779 61.7334V1.18701H6.34058V61.7334L36.5598 78.8126L66.779 61.7334Z" fill="#FFCC33"/>
<path d="M40.7015 76.4788L66.779 48.0943V52.6271L42.3878 75.5209L40.7015 76.4788ZM39.5547 77.1263L66.779 42.1718V35.6018L38.8397 77.531L39.5547 77.1263ZM6.34058 52.6406L30.4215 75.3455L32.1483 76.3169L6.34058 48.1078V52.6406ZM6.34058 42.1718L33.322 76.9914L34.0505 77.4096L6.34058 35.5614V42.1718ZM6.34058 26.3472L34.6576 77.7334L35.0758 77.9762L6.34058 15.2039V26.3472ZM55.4333 68.155L66.779 60.4248V56.9577L46.0303 73.4568L55.4333 68.155ZM36.9645 78.5833L52.1416 1.18701H46.0573L36.7622 78.6912L36.9645 78.5833ZM38.2596 77.8548L66.779 26.4012V15.3118L37.8549 78.0841L38.2596 77.8548ZM36.5598 78.8126L39.5278 1.18701H33.6458L36.3979 78.7182L36.5598 78.8126ZM37.4907 78.2865L65.6323 1.21399L65.5649 1.18701H59.0623L37.2208 78.4349L37.4907 78.2865ZM35.7234 78.3405L14.1247 1.18701H7.56823L35.4401 78.1786L35.7234 78.3405ZM6.34058 60.4383L17.2816 67.9256L26.7251 73.2545L6.34058 56.9712V60.4383ZM36.1956 78.6103L27.1028 1.18701H21.032L35.9797 78.4889L36.1956 78.6103Z" fill="#CB6D49"/>
<path d="M61.8282 49.9697L61.0727 51.4132C61.2076 52.0068 61.0322 52.7353 60.7489 53.6526C60.5061 54.4486 60.2498 55.5009 59.7236 56.2294C58.5499 57.8618 57.1874 58.4014 56.5398 57.5515V61.0186C56.7961 60.2631 57.1739 59.5481 57.6326 58.9005C58.1182 58.2125 58.7388 57.8887 59.2379 57.6189C59.872 57.2547 60.3847 57.1333 60.7489 57.4975L61.7472 56.5262L62.8939 55.0287L61.8282 56.6746L61.0727 58.1181C61.2076 58.7117 61.0322 59.4402 60.7489 60.344C60.5061 61.14 60.2498 62.1923 59.7236 62.9208C58.5634 64.5397 57.2009 65.0928 56.5533 64.2564V67.5211L56.4049 67.6155L56.1621 67.7505L55.8113 67.9528L55.6899 68.0203V64.2024C55.0828 65.2277 53.6393 64.6611 52.4386 62.8938C51.953 62.1923 51.6831 61.2209 51.4403 60.4655C51.13 59.4806 50.9951 58.6577 51.157 58.0236L50.4285 56.5397L49.3627 54.8938L50.5094 56.4048L51.4808 57.4301C51.818 57.1333 52.2767 57.3221 52.8703 57.6459C53.383 57.9292 54.0575 58.199 54.5702 58.9545C55.0558 59.6695 55.4471 60.4655 55.6899 61.3019V57.511C55.0828 58.5498 53.6393 57.9697 52.4251 56.2024C51.9395 55.5009 51.6697 54.5295 51.4268 53.7741C51.1165 52.7892 50.9816 51.9663 51.1435 51.3322L50.415 49.8483L49.3492 48.2024L50.496 49.7134L51.4673 50.7387C51.8046 50.4419 52.2632 50.6307 52.8568 50.968C53.3695 51.2513 54.044 51.5211 54.5567 52.2766C55.0423 53.0051 55.4201 53.7876 55.6764 54.624V50.8871C55.0558 51.8314 53.6393 51.2513 52.4521 49.511C51.9664 48.8095 51.6966 47.8381 51.4538 47.0827C51.1435 46.0978 51.0086 45.2749 51.1705 44.6408L50.442 43.1569L49.3762 41.511L50.5229 43.022L51.4943 44.0473C51.8315 43.7505 52.2902 43.9393 52.8838 44.2766C53.3965 44.5599 54.071 44.8297 54.5836 45.5852C55.0558 46.2732 55.4066 47.0152 55.6629 47.8112V44.1147C55.0558 45.167 53.6123 44.5869 52.3981 42.8196C51.9125 42.1181 51.6427 41.1467 51.3998 40.3913C51.0895 39.4064 50.9546 38.5835 51.1165 37.9494L50.388 36.4655L49.3223 34.8196L50.469 36.3306L51.4403 37.3559C51.7776 37.0591 52.2363 37.2479 52.8299 37.5717C53.3425 37.855 54.017 38.1248 54.5297 38.8803C55.0154 39.6088 55.3931 40.4182 55.6494 41.2547V37.4773C55.0423 38.543 53.5988 37.9629 52.3847 36.1822C51.899 35.4806 51.6292 34.5093 51.3863 33.7538C51.0761 32.769 50.9412 31.9461 51.103 31.312L50.3745 29.828L49.3223 28.1822L50.469 29.6796L51.4403 30.7049C51.7776 30.4081 52.2363 30.597 52.8299 30.9343C53.3425 31.2176 54.017 31.4874 54.5297 32.2429C55.0288 32.9714 55.4066 33.7808 55.6494 34.6307V33.3221C54.9614 32.769 54.4622 30.8668 54.4622 28.6274C54.4622 27.5751 54.7186 26.5903 54.9074 25.7943C55.1503 24.769 55.4336 24.0405 55.8248 23.8247L56.0137 21.9494L56.0541 19.5481L56.1351 21.9494L56.324 23.8247C56.6882 24.0405 56.9041 24.7285 57.1469 25.6729C57.3627 26.4958 57.6865 27.4941 57.6865 28.6139C57.6865 30.9208 57.1604 32.85 56.4454 33.3491V34.4553C56.7017 33.6459 57.0929 32.8769 57.5786 32.1889C58.0643 31.5009 58.6848 31.1771 59.184 30.9073C59.8181 30.543 60.3307 30.4216 60.695 30.7859L61.6933 29.8145L62.84 28.3171L61.7742 29.9629L61.0187 31.4064C61.1536 32 60.9783 32.7285 60.695 33.6324C60.4521 34.4284 60.1958 35.4806 59.6697 36.2091C58.4825 37.855 57.0794 38.3946 56.4589 37.4773V41.0253C56.7152 40.2294 57.0929 39.4739 57.5921 38.7994C58.0777 38.1113 58.6983 37.7876 59.1975 37.5177C59.8315 37.1535 60.3442 37.0321 60.7084 37.3963L61.7068 36.425L62.8535 34.9275L61.7877 36.5734L61.0322 38.0169C61.1671 38.6105 60.9917 39.339 60.7084 40.2429C60.4656 41.0388 60.2093 42.0911 59.6831 42.8196C58.496 44.4655 57.1064 45.0051 56.4858 44.1147V47.8112C56.7422 46.9747 57.1334 46.1923 57.646 45.4908C58.1317 44.8027 58.7523 44.479 59.2514 44.2091C59.8855 43.8449 60.3982 43.7235 60.7624 44.0877L61.7607 43.1164L62.9074 41.6189L61.8417 43.2648L61.0862 44.7083C61.2211 45.3019 61.0457 46.0304 60.7624 46.9343C60.5196 47.7302 60.2632 48.7825 59.7371 49.511C58.5364 51.1838 57.1199 51.7235 56.4993 50.7521V54.3272C56.7557 53.5582 57.1334 52.8297 57.6056 52.1687C58.0912 51.4806 58.7118 51.1569 59.211 50.8871C59.845 50.5228 60.3577 50.4014 60.7219 50.7656L61.7202 49.7943L62.867 48.2968L61.8282 49.9697Z" fill="#4E321D"/>
<path d="M22.5295 49.9698L21.774 51.4133C21.9089 52.0069 21.7336 52.7354 21.4503 53.6527C21.2074 54.4487 20.9511 55.5009 20.425 56.2294C19.2513 57.8618 17.8887 58.4015 17.2412 57.5515V61.0187C17.4975 60.2632 17.8752 59.5482 18.3339 58.9006C18.8196 58.2126 19.4401 57.8888 19.9393 57.619C20.5734 57.2547 21.086 57.1333 21.4503 57.4976L22.4486 56.5262L23.5953 55.0288L22.5295 56.6746L21.774 58.1181C21.9089 58.7117 21.7336 59.4402 21.4503 60.3441C21.2074 61.1401 20.9511 62.1924 20.425 62.9209C19.2648 64.5397 17.9022 65.0929 17.2546 64.2564V68.0743L16.3912 67.4267V64.1755C15.7842 65.2008 14.3407 64.6342 13.14 62.8669C12.6543 62.1654 12.3845 61.194 12.1417 60.4386C11.8314 59.4537 11.6965 58.6308 11.8584 57.9967L11.1299 56.5128L10.0641 54.8669L11.2108 56.3778L12.1821 57.4031C12.5194 57.1063 12.9781 57.2952 13.5717 57.619C14.0843 57.9023 14.7589 58.1721 15.2715 58.9276C15.7572 59.6426 16.1349 60.4386 16.3777 61.275V57.4841C15.7707 58.5229 14.3272 57.9428 13.113 56.1755C12.6273 55.474 12.3575 54.5026 12.1147 53.7472C11.8044 52.7623 11.6695 51.9394 11.8314 51.3053L11.1029 49.8214L10.0371 48.1755L11.1838 49.6864L12.1552 50.7117C12.4924 50.4149 12.9511 50.6038 13.5447 50.9411C14.0573 51.2244 14.7319 51.4942 15.2445 52.2497C15.7302 52.9782 16.1079 53.7741 16.3643 54.6106V50.8601C15.7437 51.8045 14.3272 51.2244 13.14 49.4841C12.6543 48.7826 12.3845 47.8112 12.1417 47.0558C11.8314 46.0709 11.6965 45.248 11.8584 44.6139L11.1973 43.103L10.1315 41.4571L11.2783 42.9681L12.2496 43.9934C12.5869 43.6966 13.0455 43.8854 13.6391 44.2227C14.1518 44.506 14.8263 44.7758 15.339 45.5313C15.8111 46.2193 16.1619 46.9613 16.4182 47.7573V44.0608C15.8246 45.1131 14.3676 44.533 13.1535 42.7657C12.6678 42.0642 12.398 41.0929 12.1552 40.3374C11.8449 39.3526 11.71 38.5296 11.8718 37.8956L11.1434 36.4116L10.0776 34.7657L11.2243 36.2767L12.1956 37.302C12.5329 37.0052 12.9916 37.194 13.5852 37.5178C14.0978 37.8011 14.7724 38.0709 15.285 38.8264C15.7842 39.5549 16.1619 40.3644 16.4047 41.2008V37.4234C15.8111 38.4891 14.3541 37.909 13.14 36.1283C12.6543 35.4267 12.3845 34.4554 12.1417 33.6999C11.8314 32.7151 11.6965 31.8922 11.8584 31.2581L11.1299 29.7741L10.0641 28.1148L11.2108 29.6122L12.1821 30.6375C12.5194 30.3407 12.9781 30.5296 13.5717 30.8669C14.0843 31.1502 14.7589 31.42 15.2715 32.1755C15.7707 32.904 16.1484 33.7134 16.3912 34.5633V33.2547C15.7032 32.7016 15.2041 30.7994 15.2041 28.56C15.2041 27.5077 15.4604 26.5229 15.6493 25.7269C15.8921 24.7016 16.1754 23.9731 16.5666 23.7573L16.7555 21.8821L16.796 19.4807L16.8769 21.8821L17.0658 23.7573C17.43 23.9731 17.6459 24.6612 17.8887 25.6055C18.1046 26.4284 18.4283 27.4268 18.4283 28.5465C18.4283 30.8534 17.9022 32.7826 17.1872 33.2817V34.388C17.4435 33.5785 17.8347 32.8096 18.3204 32.1215C18.8061 31.4335 19.4267 31.1097 19.9258 30.8399C20.5599 30.4757 21.0725 30.3542 21.4368 30.7185L22.4351 29.7472L23.5818 28.2497L22.516 29.8956L21.7606 31.3391C21.8955 31.9327 21.7201 32.6611 21.4368 33.565C21.1939 34.361 20.9376 35.4133 20.4115 36.1418C19.2243 37.7876 17.8213 38.3273 17.2007 37.4234V40.9714C17.457 40.1755 17.8482 39.42 18.3339 38.7455C18.8196 38.0574 19.4401 37.7337 19.9393 37.4639C20.5734 37.0996 21.086 36.9782 21.4503 37.3424L22.4486 36.3711L23.5953 34.8736L22.5295 36.5195L21.774 37.963C21.9089 38.5566 21.7336 39.2851 21.4503 40.189C21.2074 40.9849 20.9511 42.0372 20.425 42.7657C19.2378 44.4116 17.8482 44.9512 17.2277 44.0608L17.2412 47.7573C17.4975 46.9208 17.8887 46.1384 18.4014 45.4369C18.887 44.7488 19.5076 44.4251 20.0068 44.1552C20.6408 43.791 21.167 43.6696 21.5177 44.0338L22.516 43.0625L23.6627 41.565L22.597 43.2109L21.8415 44.6544C21.9764 45.248 21.801 45.9765 21.5177 46.8804C21.2749 47.6763 21.0186 48.7286 20.4924 49.4571C19.2917 51.13 17.8752 51.6696 17.2546 50.6982V54.2733C17.511 53.5043 17.8887 52.7758 18.3609 52.1148C18.8466 51.4267 19.4671 51.103 19.9663 50.8332C20.6003 50.4689 21.1265 50.3475 21.4772 50.7117L22.4756 49.7404L23.6223 48.2429L22.5295 49.9698Z" fill="#4E321D"/>
<path d="M44.2764 46.0842L43.2511 48.0404C43.44 48.8364 43.1972 49.8212 42.8059 51.0758C42.4687 52.1551 42.1314 53.5851 41.4164 54.5699C39.8245 56.7824 37.9763 57.5244 37.0994 56.3642V61.0589C37.4501 60.0337 37.9493 59.0623 38.5834 58.1854C39.2444 57.2546 40.0943 56.8229 40.7554 56.4451C41.6188 55.9595 42.3203 55.7841 42.8059 56.2832L44.155 54.9611L45.7065 52.924L44.2629 55.1635L43.2377 57.1197C43.4265 57.9291 43.1837 58.9004 42.7925 60.1551C42.4552 61.2343 42.1179 62.6643 41.4029 63.6492C39.8245 65.8482 37.9763 66.5901 37.0994 65.4704V78.6239L36.5597 78.9342L35.8717 78.4215L35.9392 65.3625C35.1162 66.752 33.1601 65.9831 31.5277 63.5817C30.8801 62.6239 30.5024 61.3153 30.1786 60.29C29.7604 58.9544 29.5715 57.8347 29.8009 56.9848L28.8161 54.9611L27.3726 52.7217L28.924 54.7588L30.2461 56.1483C30.7048 55.7436 31.3253 55.9999 32.1348 56.4451C32.8363 56.8364 33.7402 57.2006 34.4282 58.2124C35.0893 59.1972 35.6019 60.263 35.9392 61.3962V56.2428C35.1162 57.6593 33.1466 56.8633 31.5142 54.4755C30.8667 53.5176 30.4889 52.209 30.1651 51.1702C29.7469 49.8347 29.5581 48.7149 29.7874 47.865L28.8026 45.8414L27.3995 43.6424L28.951 45.6795L30.2731 47.0691C30.7317 46.6643 31.3523 46.9207 32.1618 47.3659C32.8633 47.7571 33.7672 48.1213 34.4552 49.1332C35.1162 50.118 35.6289 51.1972 35.9662 52.3305V47.2444C35.1162 48.5261 33.2006 47.7301 31.5952 45.3827C30.9476 44.4249 30.5699 43.1163 30.2461 42.0775C29.8279 40.7419 29.639 39.6222 29.8683 38.7723L28.8835 36.7622L27.4535 34.5227L29.0049 36.5598L30.327 37.9493C30.7857 37.5446 31.4063 37.8009 32.2157 38.2596C32.9172 38.6509 33.8211 39.0151 34.5092 40.0269C35.1432 40.9578 35.6289 41.9696 35.9662 43.0488V38.0573C35.1567 39.4873 33.1736 38.7048 31.5412 36.29C30.8936 35.3321 30.5159 34.0235 30.1921 32.9982C29.7739 31.6627 29.585 30.5429 29.8144 29.693L28.8296 27.6694L27.3861 25.4569L28.9375 27.494L30.2596 28.8836C30.7183 28.4788 31.3388 28.7352 32.1483 29.1804C32.8498 29.5716 33.7537 29.9358 34.4417 30.9477C35.1162 31.946 35.6289 33.0387 35.9662 34.1854V29.0589C35.1567 30.5025 33.1736 29.72 31.5277 27.3052C30.8801 26.3473 30.5024 25.0387 30.1786 24.0134C29.7604 22.6778 29.5715 21.5581 29.8009 20.7082L28.8161 18.6981L27.3726 16.4586L28.924 18.4957L30.2461 19.8987C30.7048 19.494 31.3253 19.7503 32.1348 20.1955C32.8363 20.5868 33.7402 20.951 34.4282 21.9628C35.1027 22.9611 35.6154 24.0539 35.9527 25.2141V23.4333C35.0218 22.6778 34.3338 20.1146 34.3338 17.0522C34.3338 15.6222 34.671 14.2866 34.9274 13.1939C35.2646 11.7908 35.6289 10.806 36.182 10.5227L36.4383 7.97294L36.4923 4.72168L36.6002 7.98643L36.843 10.5362C37.3287 10.8195 37.639 11.7638 37.9628 13.0455C38.2461 14.1652 38.6913 15.5143 38.6913 17.0387C38.6913 20.1686 37.9763 22.7858 37.0049 23.4738V24.9847C37.3557 23.892 37.8818 22.8532 38.5564 21.9089C39.2174 20.978 40.0673 20.5463 40.7284 20.1686C41.5918 19.6829 42.2933 19.5075 42.779 20.0067L44.128 18.6846L45.6795 16.6475L44.236 18.8869L43.2107 20.8566C43.3995 21.6525 43.1567 22.6374 42.7655 23.892C42.4282 24.9713 42.0909 26.4013 41.3759 27.3861C39.757 29.6391 37.8683 30.3675 37.0184 29.1129L37.0319 33.9291C37.3827 32.8498 37.8953 31.8245 38.5564 30.9072C39.2174 29.9763 40.0673 29.5446 40.7284 29.1669C41.5918 28.6812 42.2933 28.5058 42.779 29.005L44.128 27.6829L45.6795 25.6458L44.236 27.8853L43.2107 29.8414C43.3995 30.6374 43.1567 31.6222 42.7655 32.8768C42.4282 33.9561 42.0909 35.3861 41.3759 36.3709C39.7705 38.6104 37.8818 39.3389 37.0319 38.1247L37.0454 43.1433C37.3962 42.0235 37.9223 40.9578 38.6103 39.9864C39.2714 39.0556 40.1213 38.6239 40.7823 38.2461C41.6457 37.7605 42.3473 37.5851 42.8329 38.0842L44.182 36.7622L45.7334 34.7251L44.2899 36.9645L43.2646 38.9207C43.4535 39.7166 43.1972 40.7014 42.8194 41.9561C42.4822 43.0353 42.1449 44.4654 41.4434 45.4502C39.811 47.7301 37.8818 48.4451 37.0589 47.1365V51.9932C37.4097 50.9544 37.9223 49.9696 38.5564 49.0657C39.2174 48.1348 40.0673 47.7031 40.7284 47.3254C41.5918 46.8397 42.2933 46.6643 42.779 47.1635L44.128 45.8414L45.6795 43.8043L44.2764 46.0842Z" fill="#4E321D"/>
<path d="M72.9174 43.1569L72.8095 59.3862C68.4115 61.1805 63.3255 62.7994 57.9697 63.1097C51.1838 63.5009 43.8179 62.0978 36.452 60.6813C23.7572 58.5228 10.887 57.5919 0.782494 60.479C0.539661 60.5464 0.283337 60.4115 0.215883 60.1687C0.202392 60.1282 0.202393 60.0742 0.202393 60.0338L0.310319 43.8044C4.7083 42.0102 9.7943 40.3778 15.1501 40.0675C21.9225 39.6763 29.2884 41.0793 36.6543 42.4823C49.3356 44.6409 62.2327 45.5852 72.3238 42.6982C72.5666 42.6307 72.823 42.7656 72.8904 43.0085C72.9174 43.0759 72.9174 43.1164 72.9174 43.1569Z" fill="#FFCC33"/>
<path d="M55.6088 63.3794C49.43 63.3794 42.833 62.1113 36.4115 60.8836L36.3575 60.8702C21.059 58.2799 9.44351 58.2125 0.849916 60.6813C0.647555 60.7353 0.431703 60.6948 0.269814 60.5734C0.0944351 60.4519 0 60.2496 0 60.0337L0.107926 43.6695L0.229342 43.6155C5.76054 41.3491 10.6307 40.1214 15.1366 39.8651C21.9764 39.4604 29.4637 40.9039 36.6948 42.2934H36.7083C52.0337 44.9106 63.6627 44.9781 72.2833 42.5093C72.4857 42.4553 72.7015 42.4958 72.8634 42.6172C73.0253 42.7386 73.1332 42.941 73.1332 43.1568L73.0253 59.5211L72.9039 59.5751C67.3727 61.828 62.5025 63.0557 57.9966 63.312C57.2007 63.3659 56.4047 63.3794 55.6088 63.3794ZM36.6543 60.5194C43.8179 61.8955 51.2243 63.312 57.9562 62.9208C62.3811 62.6644 67.1703 61.4638 72.6071 59.2648L72.715 43.1703C72.715 43.0219 72.6071 42.914 72.4587 42.9005C72.4317 42.9005 72.4047 42.9005 72.3777 42.914C63.7032 45.3963 52.0202 45.3288 36.6273 42.7116H36.5599L36.5464 42.6982C29.3423 41.3221 21.9089 39.8921 15.1366 40.2968C10.7251 40.5531 5.92243 41.7538 0.499156 43.9663L0.404722 60.0337C0.404722 60.1147 0.445194 60.1956 0.512648 60.2496C0.580102 60.3036 0.661046 60.317 0.74199 60.2901C9.41653 57.8078 21.113 57.8617 36.4924 60.4789L36.6543 60.5194Z" fill="#4E321D"/>
<path d="M18.334 54.3272C16.9984 54.2327 16.3373 54.2057 15.0422 54.1653C15.0287 53.9089 15.0152 53.7875 15.0018 53.5447C15.1502 53.5447 15.2986 53.5177 15.447 53.4907C15.5819 53.4772 15.7033 53.4368 15.8247 53.3558C15.9191 53.2479 16.0001 53.1265 16.0405 52.9781C16.081 52.8027 16.0945 52.6138 16.081 52.4385C15.8921 49.3895 15.7168 46.3406 15.5279 43.3052H15.447C14.8264 46.8533 14.2193 50.4014 13.6122 53.9494C13.5043 53.9494 13.4638 53.9494 13.3559 53.9494C12.3711 50.3339 11.4132 46.7184 10.4419 43.1029H10.3744C10.5228 45.5987 10.6577 48.0944 10.7927 50.5902C10.8196 51.1433 10.8736 51.6965 10.9545 52.2496C10.995 52.5329 11.0894 52.8027 11.2378 53.0455C11.3593 53.1939 11.5212 53.3153 11.71 53.3828C11.8584 53.4503 12.0068 53.5177 12.1687 53.5447C12.1822 53.801 12.1957 53.9224 12.2092 54.1653C11.0625 54.1922 10.5093 54.2192 9.40311 54.3137C9.38962 54.0708 9.37612 53.9359 9.36263 53.6931C9.51103 53.6526 9.67292 53.5987 9.80783 53.5312C9.95623 53.4637 10.0776 53.3558 10.1586 53.2074C10.28 52.9646 10.3475 52.7083 10.3475 52.4385C10.3744 51.8584 10.3609 51.2917 10.3205 50.7116C10.1991 48.5666 10.0776 46.4216 9.96972 44.2901C9.95623 43.9933 9.91575 43.6965 9.8483 43.3997C9.80783 43.2108 9.72688 43.0219 9.60547 42.86C9.51103 42.7251 9.37612 42.6172 9.22773 42.5497C9.09282 42.4958 8.94442 42.4688 8.79602 42.4688C8.78253 42.226 8.78253 42.1046 8.76904 41.8617C9.68641 41.7538 10.1451 41.7133 11.0894 41.6729C11.9663 44.7892 12.8028 47.9056 13.6662 51.0219C14.0979 48.4047 14.5296 45.7875 14.9748 43.1703C15.0287 42.887 15.0557 42.6037 15.0827 42.2934C15.1097 41.9831 15.1232 41.7808 15.1232 41.6863C16.081 41.7268 16.5667 41.7673 17.538 41.8482C17.5515 42.0911 17.565 42.2125 17.5785 42.4553C17.4571 42.4553 17.3222 42.4688 17.2007 42.5093C17.0928 42.5363 16.9849 42.5632 16.877 42.6172C16.7556 42.6847 16.6746 42.8061 16.6611 42.941C16.6341 43.1164 16.6206 43.2917 16.6341 43.4671C16.823 46.489 17.0119 49.4975 17.1873 52.5194C17.2007 52.6948 17.2277 52.8702 17.2817 53.0455C17.3357 53.1939 17.4301 53.3288 17.5515 53.4368C17.6594 53.5177 17.7674 53.5852 17.9023 53.6256C18.0237 53.6796 18.1586 53.7066 18.2935 53.7336C18.307 53.9629 18.3205 54.0843 18.334 54.3272Z" fill="#4E321D"/>
<path d="M25.7538 54.8938C25.538 54.9613 25.3491 55.0287 25.1872 55.0557C24.9984 55.0962 24.8095 55.1097 24.6341 55.0827C24.2968 55.0557 23.9866 54.9073 23.7437 54.6645C23.5009 54.3947 23.3255 54.0574 23.2715 53.6931H23.2311C23.0017 54.0439 22.6914 54.3407 22.3272 54.5566C21.9495 54.7454 21.5312 54.8264 21.113 54.7724C20.6004 54.7319 20.1417 54.4756 19.8314 54.0709C19.4672 53.6122 19.2648 53.0456 19.2513 52.4655C19.2243 52.1687 19.2513 51.8719 19.3053 51.5751C19.3592 51.3323 19.4537 51.1029 19.5886 50.8871C19.6965 50.7117 19.8314 50.5633 20.0068 50.4554C20.1687 50.3474 20.3306 50.253 20.5059 50.1721C20.6948 50.0911 21.0995 49.9427 21.7201 49.7404C22.1518 49.6189 22.5565 49.4571 22.9613 49.2547C22.9343 48.9039 22.9343 48.7286 22.9073 48.3778C22.9073 48.2969 22.8803 48.1485 22.8398 47.9326C22.7994 47.7168 22.7319 47.5009 22.6375 47.2985C22.5296 47.0692 22.3812 46.8668 22.2058 46.6915C22.0034 46.5026 21.7471 46.3812 21.4773 46.3677C21.2884 46.3407 21.086 46.3677 20.8972 46.4351C20.7623 46.4891 20.6274 46.57 20.5329 46.678C20.5464 46.8533 20.5869 47.0287 20.6274 47.2041C20.6813 47.42 20.7218 47.6223 20.7353 47.8517C20.7488 48.054 20.6813 48.2429 20.5599 48.3913C20.4115 48.5532 20.1957 48.6206 19.9798 48.5937C19.7505 48.5667 19.5616 48.4318 19.4672 48.2294C19.3457 48.0136 19.2783 47.7572 19.2648 47.5144C19.2513 47.2446 19.3053 46.9883 19.4402 46.7589C19.5751 46.5296 19.7505 46.3137 19.9663 46.1518C20.1822 46.0034 20.425 45.882 20.6813 45.8146C20.9511 45.7336 21.2479 45.7066 21.5177 45.7471C21.8685 45.7876 22.2058 45.855 22.5296 45.963C22.8398 46.0844 23.1097 46.2598 23.339 46.4891C23.6088 46.7589 23.8112 47.0827 23.9326 47.4335C24.0945 47.9056 24.1889 48.3913 24.2159 48.8904C24.2699 49.7269 24.3103 50.4689 24.3373 51.1164C24.3643 51.764 24.4048 52.4655 24.4587 53.2345C24.4722 53.4233 24.5127 53.6122 24.5936 53.7876C24.6746 53.936 24.7825 54.0574 24.9039 54.1653C24.9984 54.2328 25.1198 54.2732 25.2412 54.2867C25.3896 54.3137 25.5515 54.3272 25.7134 54.3542C25.7269 54.57 25.7403 54.678 25.7538 54.8938ZM23.0017 49.9967C22.6645 50.0776 22.3272 50.1856 22.0034 50.307C21.7201 50.4149 21.4638 50.5633 21.221 50.7522C21.0051 50.9275 20.8297 51.1569 20.7218 51.4132C20.6004 51.7235 20.5599 52.0473 20.5869 52.3711C20.6139 52.8567 20.7353 53.221 20.9511 53.4773C21.14 53.7201 21.4233 53.8685 21.7336 53.8955C22.0304 53.936 22.3272 53.855 22.57 53.6797C22.7994 53.5043 23.0017 53.2884 23.1501 53.0321C23.0962 51.8179 23.0692 51.2109 23.0017 49.9967Z" fill="#4E321D"/>
<path d="M29.747 55.5547C28.3709 55.3793 27.6829 55.2849 26.3203 55.123C26.3068 54.8937 26.2933 54.7857 26.2798 54.5564H26.6171C26.7115 54.5564 26.8195 54.5564 26.9139 54.5294C27.0353 54.5024 27.1432 54.408 27.1972 54.2866C27.2647 54.1247 27.2782 53.9628 27.2647 53.7874C27.0488 50.4822 26.8195 47.177 26.5901 43.8718C26.5766 43.6694 26.5227 43.467 26.4417 43.2782C26.3743 43.1028 26.2664 42.9544 26.1314 42.8195C25.983 42.7115 25.8212 42.6171 25.6593 42.5632C25.4839 42.4957 25.295 42.4282 25.1061 42.3878C25.0927 42.1719 25.0792 42.064 25.0657 41.8481C26.1045 41.9291 26.6306 41.9696 27.6829 42.0505L27.7908 42.1854C28.0606 46.0707 28.3304 49.9561 28.5868 53.8549C28.6002 54.0303 28.6407 54.2056 28.7082 54.3675C28.7891 54.5024 28.897 54.6239 29.032 54.7048C29.1264 54.7723 29.2343 54.8262 29.3557 54.8802C29.4637 54.9207 29.5851 54.9611 29.7065 54.9881C29.72 55.2175 29.7335 55.3254 29.747 55.5547Z" fill="#4E321D"/>
<path d="M33.9293 56.0944C32.5803 55.9191 31.8922 55.8246 30.5027 55.6492C30.4892 55.4199 30.4757 55.312 30.4622 55.0826H30.813C30.9209 55.0826 31.0153 55.0826 31.1233 55.0557C31.2447 55.0287 31.3526 54.9342 31.4066 54.8263C31.474 54.6644 31.4875 54.5025 31.474 54.3406C31.2582 51.0624 31.0288 47.7707 30.7995 44.4924C30.786 44.2901 30.732 44.0877 30.6511 43.8988C30.5701 43.7234 30.4622 43.5751 30.3273 43.4401C30.1789 43.3322 30.017 43.2378 29.8416 43.1838C29.6528 43.1164 29.4774 43.0489 29.2885 42.995C29.275 42.7791 29.2615 42.6712 29.248 42.4553C30.3138 42.5363 30.84 42.5767 31.9192 42.6577L32.0271 42.7926C32.297 46.6644 32.5533 50.5228 32.8096 54.3946C32.8231 54.57 32.8636 54.7454 32.931 54.9073C32.9985 55.0422 33.1064 55.1636 33.2413 55.2445C33.3357 55.312 33.4437 55.3659 33.5516 55.4064C33.6595 55.4469 33.7809 55.4874 33.8889 55.5143C33.9158 55.7572 33.9158 55.8651 33.9293 56.0944Z" fill="#4E321D"/>
<path d="M46.5701 57.4435C45.1265 57.3356 44.398 57.2816 42.9276 57.1332C42.9141 56.8904 42.9141 56.769 42.9006 56.5261C43.1704 56.5396 43.4402 56.4991 43.6965 56.4317C43.8989 56.3642 44.0068 56.2698 43.9933 56.1484C43.9933 56.0809 43.9798 56.027 43.9663 55.9595C43.9529 55.8921 43.9394 55.8246 43.9124 55.7571C43.5751 54.6509 43.3997 54.0843 43.049 52.9646C41.8078 52.8432 41.1738 52.7757 39.9326 52.6273C39.8382 53.0185 39.7572 53.3558 39.7033 53.6391C39.6493 53.9224 39.5953 54.1922 39.5549 54.4485C39.5144 54.7049 39.4874 54.8803 39.4739 55.0421C39.4604 55.1636 39.4604 55.285 39.4604 55.4199C39.4739 55.6492 39.6088 55.8381 39.8787 56C40.162 56.1619 40.4588 56.2698 40.7825 56.3238C40.796 56.5666 40.796 56.688 40.8095 56.9308C39.4739 56.7824 38.7994 56.715 37.4638 56.5531C37.4503 56.3103 37.4503 56.1889 37.4233 55.946C37.5582 55.946 37.6932 55.9325 37.8281 55.8921C37.963 55.8651 38.0979 55.8111 38.2193 55.7167C38.3677 55.5953 38.4891 55.4469 38.5835 55.285C38.6915 55.0691 38.7589 54.8533 38.8129 54.6239C39.2176 52.9646 39.6223 51.3052 40.0136 49.6324C40.4048 48.0135 40.796 46.3811 41.2007 44.7622L41.7134 44.8162C42.8871 48.3912 44.0473 51.9663 45.194 55.5413C45.248 55.7302 45.3289 55.919 45.4368 56.0944C45.5313 56.2563 45.6527 56.3912 45.7876 56.5261C45.8955 56.6206 46.0304 56.7015 46.1653 56.7555C46.2867 56.8094 46.4217 56.8499 46.5566 56.8769L46.5701 57.4435ZM42.7927 52.1821C42.2665 50.5632 41.7269 48.9443 41.2007 47.3254C40.8365 48.8499 40.4722 50.3609 40.1215 51.8853C41.1873 52.0202 41.7269 52.0742 42.7927 52.1821Z" fill="#4E321D"/>
<path d="M52.4251 56.8364C52.6139 57.0523 52.7623 57.2951 52.8702 57.5649C52.9917 57.8887 53.0456 58.226 53.0591 58.5632C53.0726 58.941 53.0186 59.3187 52.8972 59.683C52.7758 60.0337 52.5734 60.344 52.3171 60.5868C52.0203 60.8567 51.6696 61.059 51.2918 61.1804C50.7927 61.3288 50.28 61.3828 49.7674 61.3558C48.7691 61.3153 48.0136 61.086 47.4874 60.6948C46.9748 60.3035 46.6645 59.683 46.6645 59.0354C46.6375 58.4688 46.7994 58.0236 47.1502 57.7133C47.5279 57.3895 48.0136 57.2277 48.5127 57.2546C48.5127 57.2007 48.5127 57.1872 48.5127 57.1332C48.3643 57.0658 48.2159 56.9983 48.081 56.9174C47.9461 56.8364 47.8112 56.742 47.6898 56.6341C47.5684 56.5127 47.4605 56.3643 47.3795 56.2024C47.2986 56.0135 47.2446 55.8111 47.2446 55.5953C47.2311 55.312 47.2986 55.0287 47.4605 54.7858C47.6493 54.516 47.9057 54.3137 48.2025 54.1788C48.2025 54.1248 48.2025 54.0978 48.2025 54.0439C47.7708 53.774 47.4065 53.4233 47.1367 52.9916C46.8804 52.5599 46.732 52.0742 46.7185 51.575C46.678 50.7791 46.8939 50.145 47.3525 49.6729C47.8112 49.2007 48.4183 48.9848 49.1603 49.0253C49.3627 49.0388 49.5785 49.0793 49.7674 49.1332C49.9832 49.2007 50.1856 49.2681 50.388 49.3491C51.3188 49.3895 51.791 49.403 52.7084 49.4165L52.7353 50.226C52.1148 50.2125 51.8045 50.2125 51.1839 50.1855V50.2395C51.3593 50.4823 51.4942 50.7656 51.5886 51.0489C51.6831 51.3322 51.7235 51.6155 51.737 51.9123C51.7775 52.5869 51.5482 53.2614 51.0895 53.7605C50.6848 54.2327 50.0912 54.489 49.4706 54.4621C49.1468 54.4486 48.9849 54.4351 48.6477 54.4216C48.5262 54.4756 48.4183 54.5565 48.3374 54.6509C48.2159 54.7858 48.162 54.9477 48.189 55.1231C48.189 55.2985 48.2429 55.4739 48.3509 55.6088C48.4453 55.7167 48.5667 55.7976 48.7016 55.8516C48.85 55.9056 48.9984 55.946 49.1603 55.9595C49.3357 55.973 49.5111 56 49.6999 56.0135C49.8888 56.027 50.1721 56.054 50.5094 56.0944C50.8466 56.1349 51.103 56.1619 51.2379 56.1619C51.4537 56.1754 51.6696 56.2428 51.8584 56.3643C52.0608 56.4857 52.2632 56.6476 52.4251 56.8364ZM51.9799 58.86C51.9799 58.5902 51.9124 58.3204 51.7775 58.0911C51.6561 57.8887 51.4672 57.7403 51.2379 57.6729C51.1165 57.6459 50.8601 57.6189 50.4689 57.5784C50.0777 57.5379 49.565 57.4435 49.1063 57.484C48.7016 57.511 48.3374 57.7133 48.0945 58.0236C47.8922 58.3339 47.7977 58.7116 47.8382 59.0759C47.8517 59.2783 47.8922 59.4671 47.9596 59.6425C48.0406 59.8449 48.1755 60.0202 48.3374 60.1551C48.5262 60.3305 48.7421 60.4519 48.9849 60.5464C49.2952 60.6543 49.619 60.7218 49.9562 60.7218C50.6173 60.7487 51.1165 60.6003 51.4807 60.2901C51.8315 59.9798 51.9933 59.5076 51.9799 58.86ZM50.4419 51.8449C50.4149 51.1838 50.2935 50.6577 50.0642 50.253C49.8348 49.8482 49.5245 49.6459 49.1333 49.6189C48.9444 49.6054 48.7556 49.6459 48.5937 49.7538C48.4318 49.8617 48.3104 50.0236 48.2429 50.199C48.1485 50.4148 48.0945 50.6307 48.081 50.86C48.0541 51.1299 48.0406 51.3997 48.0541 51.6695C48.0541 52.2091 48.189 52.7487 48.4453 53.2209C48.6881 53.6256 48.9714 53.8415 49.3222 53.8685C49.7134 53.882 49.9967 53.7066 50.1991 53.3154C50.4014 52.9241 50.4689 52.4385 50.4419 51.8449Z" fill="#4E321D"/>
<path d="M58.5093 50.2666C58.5228 50.5229 58.4824 50.7927 58.3744 51.0356C58.2935 51.2514 58.1046 51.3863 57.8753 51.3998C57.6594 51.4268 57.4436 51.3459 57.2952 51.1975C57.1603 51.0491 57.0928 50.8737 57.0793 50.6713C57.0793 50.5634 57.0793 50.442 57.0928 50.3341C57.1063 50.2396 57.1198 50.1317 57.1198 50.0373C56.9174 50.0507 56.6746 50.1722 56.3913 50.388C56.0945 50.6443 55.8652 50.9546 55.7168 51.3189C55.7572 52.9243 55.7977 54.5297 55.8517 56.1351C55.8517 56.297 55.8787 56.4588 55.9461 56.6072C56.0001 56.7287 56.108 56.8231 56.2294 56.8771C56.3778 56.931 56.5262 56.9715 56.6746 56.985C56.85 56.9985 57.0119 57.012 57.1468 57.012C57.1468 57.2278 57.1603 57.3492 57.1603 57.5651C55.7303 57.6595 55.1097 57.6865 53.7471 57.7C53.7471 57.4841 53.7336 57.3627 53.7336 57.1469L54.0439 57.1064C54.1383 57.0929 54.2328 57.0794 54.3137 57.0389C54.4351 56.985 54.5296 56.8905 54.5835 56.7691C54.6375 56.6072 54.6645 56.4454 54.651 56.2835L54.5026 51.157C54.5026 50.9816 54.4621 50.8062 54.3947 50.6443C54.3407 50.4825 54.2463 50.3475 54.1114 50.2396C54.0169 50.1722 53.9225 50.1182 53.8146 50.0912C53.6932 50.0642 53.5717 50.0373 53.4368 50.0238C53.4368 49.8079 53.4233 49.6865 53.4233 49.4706C54.2867 49.4032 54.7184 49.3627 55.5819 49.2683L55.6763 49.3897C55.6898 49.8619 55.6898 50.0912 55.7033 50.5499H55.7303C55.9461 50.1317 56.2564 49.7809 56.6206 49.4841C56.877 49.2683 57.2007 49.1199 57.538 49.0794C57.8078 49.0524 58.0641 49.1739 58.226 49.3762C58.4149 49.6325 58.5228 49.9428 58.5093 50.2666Z" fill="#4E321D"/>
<path d="M64.0133 52.3711C64.0403 52.9377 64.0268 53.5043 63.9458 54.0709C63.8784 54.5835 63.7435 55.0962 63.5546 55.5683C63.3792 56.0001 63.1229 56.3913 62.7856 56.7151C62.5023 56.9849 62.1381 57.1737 61.7469 57.2412C61.4231 57.2952 61.0858 57.2547 60.789 57.1063C60.4517 56.9309 60.1684 56.6746 59.9526 56.3643C59.6828 55.9731 59.4804 55.5414 59.3455 55.0827C59.1836 54.5026 59.0892 53.909 59.0757 53.3019C59.0217 52.0203 59.2241 50.9545 59.6558 50.0911C60.0875 49.2277 60.6811 48.7555 61.4096 48.6476C62.1111 48.5397 62.6912 48.823 63.1769 49.484C63.6625 50.1451 63.9458 51.1164 64.0133 52.3711ZM62.988 52.6139C62.961 52.1822 62.9205 51.7505 62.8396 51.3323C62.7856 50.9545 62.6912 50.5768 62.5563 50.2125C62.4619 49.9292 62.3 49.6864 62.0976 49.4705C61.9222 49.2952 61.6794 49.2277 61.4366 49.2682C61.1668 49.3087 60.9374 49.4571 60.7755 49.6729C60.5732 49.9562 60.4383 50.2665 60.3573 50.5903C60.2494 50.9815 60.1954 51.3727 60.1684 51.7775C60.1145 52.6813 60.1549 53.5987 60.3033 54.4891C60.3708 54.8938 60.4652 55.285 60.6136 55.6493C60.7216 55.9326 60.8834 56.2024 61.0993 56.4048C61.2747 56.5802 61.531 56.6476 61.7738 56.5936C62.2055 56.5127 62.5293 56.1215 62.7452 55.4065C62.961 54.6915 63.0555 53.7741 62.988 52.6139Z" fill="#4E321D"/>
<path d="M131.147 46.843H114.027V44.9004C114.648 44.8869 115.444 44.8194 116.415 44.7115C117.386 44.6036 118.061 44.4417 118.425 44.2528C118.924 43.9695 119.356 43.5513 119.666 43.0656C119.936 42.6204 120.057 42.0538 120.057 41.3793V13.1972H119.653L106.432 46.209H105.069L92.4824 12.5091H92.1316V35.6322C92.1316 37.8717 92.2665 39.5715 92.5498 40.7452C92.8331 41.9054 93.2648 42.7418 93.8449 43.2545C94.2497 43.6322 95.0726 43.9965 96.3272 44.3472C97.5819 44.698 98.4048 44.8734 98.7825 44.8869V46.8295H83.1333V44.8869C83.9967 44.8059 84.8601 44.671 85.71 44.4821C86.6139 44.2798 87.3019 43.983 87.8011 43.5783C88.4352 43.0656 88.8804 42.2832 89.1097 41.2309C89.339 40.1786 89.4605 38.4113 89.4605 35.929V16.0977C89.4605 14.951 89.3255 14.0201 89.0557 13.2781C88.8129 12.6036 88.4082 11.9965 87.882 11.4973C87.275 10.9847 86.5734 10.6069 85.8045 10.4046C85.0085 10.1752 84.1991 10.0403 83.3761 9.99986V8.05719H96.5836L107.686 37.1432L117.157 12.8059C117.508 11.8886 117.804 10.9577 118.047 9.99986C118.29 9.02852 118.425 8.38097 118.439 8.0437H131.079V10.0268C130.418 10.0673 129.771 10.1483 129.123 10.2697C128.543 10.3641 127.963 10.499 127.396 10.6744C126.776 10.8902 126.358 11.2545 126.142 11.7671C125.926 12.2933 125.804 12.8599 125.818 13.44V41.3793C125.804 41.9324 125.912 42.4855 126.142 42.9982C126.358 43.4299 126.776 43.8211 127.396 44.1449C127.72 44.3203 128.314 44.4956 129.15 44.644C129.811 44.7789 130.472 44.8599 131.147 44.9004V46.843Z" fill="#FFCC33"/>
<path d="M161.164 46.3439C160.3 46.6542 159.558 46.8971 158.911 47.0994C158.196 47.3018 157.454 47.3962 156.712 47.3827C155.295 47.3827 154.162 47.0455 153.312 46.3844C152.462 45.7234 151.922 44.752 151.693 43.4704H151.518C150.331 44.779 149.062 45.7773 147.713 46.4788C146.351 47.1669 144.718 47.5176 142.816 47.5176C140.793 47.5176 139.133 46.8971 137.825 45.6559C136.516 44.4148 135.869 42.7959 135.869 40.7992C135.855 39.8549 136.003 38.9105 136.3 38.0202C136.584 37.2107 137.029 36.4552 137.609 35.8077C138.121 35.2141 138.729 34.7284 139.417 34.3507C140.091 33.9594 140.793 33.6222 141.521 33.3254C142.344 33.0151 144.003 32.4485 146.499 31.5986C149.008 30.7621 150.695 30.1011 151.572 29.6289V26.9308C151.545 26.4721 151.504 26.0134 151.423 25.5682C151.329 24.8937 151.113 24.2461 150.776 23.6525C150.398 22.9645 149.872 22.3574 149.238 21.8853C148.577 21.3861 147.632 21.1298 146.418 21.1298C145.622 21.1163 144.826 21.2647 144.084 21.548C143.369 21.8313 142.857 22.1281 142.573 22.4384C142.6 22.978 142.681 23.5176 142.83 24.0438C142.992 24.6913 143.086 25.3524 143.086 26.0134C143.086 26.6475 142.803 27.2411 142.223 27.7672C141.643 28.2933 140.847 28.5632 139.835 28.5632C138.931 28.5632 138.256 28.2394 137.825 27.5918C137.393 26.9443 137.177 26.1888 137.177 25.4198C137.177 24.5834 137.474 23.7874 138.068 23.0185C138.715 22.209 139.498 21.521 140.374 20.9679C141.305 20.4148 142.304 19.9696 143.356 19.6728C144.462 19.322 145.609 19.1466 146.769 19.1466C148.105 19.1331 149.454 19.2411 150.776 19.4569C151.896 19.6593 152.961 20.118 153.879 20.806C154.823 21.5075 155.565 22.4519 155.997 23.5446C156.482 24.7048 156.725 26.1888 156.725 28.01C156.725 30.6137 156.698 32.9207 156.644 34.9308C156.59 36.9409 156.563 39.1399 156.563 41.5277C156.563 42.2428 156.685 42.7959 156.928 43.2141C157.197 43.6593 157.589 44.037 158.061 44.2799C158.331 44.4417 158.762 44.5362 159.356 44.5497C159.949 44.5632 160.557 44.5767 161.177 44.5767L161.164 46.3439ZM151.626 31.9223C150.074 32.381 148.725 32.8262 147.551 33.2714C146.405 33.6896 145.326 34.2428 144.3 34.9173C143.437 35.4974 142.695 36.2394 142.142 37.1163C141.616 37.9662 141.346 38.978 141.346 40.1382C141.346 41.6492 141.737 42.7689 142.533 43.4839C143.329 44.1989 144.327 44.5497 145.555 44.5497C146.756 44.5767 147.943 44.2394 148.968 43.6053C149.912 43.0117 150.762 42.2562 151.45 41.3793L151.626 31.9223Z" fill="#FFCC33"/>
<path d="M176.449 46.843H163.309V45.0352C163.727 44.9948 164.172 44.9543 164.644 44.9138C165.036 44.8868 165.44 44.8194 165.818 44.7114C166.29 44.5765 166.695 44.2663 166.965 43.848C167.221 43.4433 167.343 42.9037 167.343 42.2426V11.0386C167.343 10.4045 167.208 9.77047 166.924 9.19037C166.668 8.65074 166.29 8.19206 165.818 7.8413C165.494 7.62545 164.887 7.42309 164.01 7.23421C163.322 7.08582 162.621 6.9644 161.906 6.91044V5.15664L172.037 4.54956L172.415 4.95428V41.9054C172.415 42.5394 172.536 43.0656 172.766 43.4703C173.036 43.902 173.44 44.2393 173.913 44.4147C174.29 44.59 174.695 44.7249 175.1 44.8194C175.531 44.9138 175.977 44.9813 176.422 45.0082V46.843H176.449Z" fill="#FFCC33"/>
<path d="M192.449 46.843H179.309V45.0352C179.727 44.9948 180.172 44.9543 180.644 44.9138C181.036 44.8868 181.44 44.8194 181.818 44.7114C182.29 44.5765 182.695 44.2663 182.965 43.848C183.221 43.4433 183.343 42.9037 183.343 42.2426V11.0386C183.343 10.4045 183.208 9.77047 182.924 9.19037C182.668 8.65074 182.29 8.19206 181.818 7.8413C181.494 7.62545 180.887 7.42309 180.01 7.23421C179.322 7.08582 178.621 6.9644 177.906 6.91044V5.15664L188.037 4.54956L188.415 4.95428V41.9054C188.415 42.5394 188.536 43.0656 188.766 43.4703C189.036 43.902 189.44 44.2393 189.913 44.4147C190.29 44.59 190.695 44.7249 191.1 44.8194C191.531 44.9138 191.977 44.9813 192.422 45.0082V46.843H192.449Z" fill="#FFCC33"/>
<path d="M246.169 46.8429H230.061V44.9003C231.477 44.8058 232.665 44.6304 233.595 44.3606C234.54 44.0908 234.999 43.7535 234.999 43.3488C234.999 43.1465 234.972 42.9441 234.945 42.7417C234.918 42.5259 234.864 42.31 234.783 42.1077L231.572 33.4196H217.973C217.461 34.6878 217.042 35.8075 216.732 36.7519C216.408 37.6962 216.125 38.5731 215.869 39.3691C215.666 40.0031 215.504 40.6372 215.369 41.2847C215.289 41.676 215.248 42.0807 215.235 42.4854C215.235 43.2139 215.801 43.7805 216.961 44.1718C218.216 44.59 219.525 44.8328 220.847 44.8868V46.8294H206.25V44.8868C206.843 44.8328 207.437 44.7249 208.031 44.5765C208.651 44.4416 209.245 44.2122 209.784 43.875C210.432 43.4567 210.998 42.9306 211.484 42.337C211.97 41.649 212.361 40.8935 212.658 40.111C214.601 35.2544 216.759 29.7906 219.106 23.7333C221.454 17.676 223.545 12.2662 225.393 7.54443H227.579L240.489 40.9745C240.705 41.595 241.029 42.1751 241.42 42.7013C241.838 43.2004 242.324 43.6321 242.864 43.9829C243.376 44.2797 243.929 44.4955 244.496 44.6304C245.049 44.7788 245.616 44.8868 246.196 44.9137L246.169 46.8429ZM230.587 31.0048L224.719 15.9626L218.931 31.0048H230.587Z" fill="#FFCC33"/>
<path d="M269.926 44.0504C270.641 44.7249 271.221 45.5209 271.653 46.3978C272.071 47.2746 272.287 48.3539 272.287 49.649C272.314 52.2797 271.032 54.762 268.873 56.2595C267.646 57.1094 266.202 57.7839 264.502 58.2561C262.816 58.7283 260.712 58.9711 258.216 58.9711C254.142 58.9711 251.093 58.3775 249.069 57.1768C247.045 55.9762 246.034 54.2359 246.034 51.9424C246.034 50.0807 246.762 48.6237 248.219 47.5445C249.676 46.4652 251.538 45.8851 253.791 45.7907V45.4129C253.211 45.2375 252.644 45.0352 252.091 44.8058C251.551 44.59 251.052 44.2932 250.594 43.9424C250.135 43.5647 249.744 43.106 249.447 42.5934C249.15 42.0807 249.015 41.4332 249.015 40.6642C249.015 39.7064 249.352 38.816 250.04 38.0065C250.728 37.1971 251.754 36.4956 253.143 35.9155V35.5107C251.39 34.6878 250.04 33.6355 249.069 32.3539C248.111 31.0723 247.626 29.5883 247.626 27.8885C247.626 25.3387 248.583 23.2477 250.486 21.6018C252.388 19.9559 254.83 19.1465 257.798 19.1465C258.621 19.1465 259.443 19.2274 260.239 19.3893C261.049 19.5512 261.872 19.7671 262.708 20.0234H272.098V22.6406H265.757V22.8025C266.418 23.558 266.931 24.4348 267.268 25.3927C267.592 26.2831 267.754 27.2274 267.754 28.1718C267.754 30.5461 266.796 32.5428 264.867 34.1752C263.005 35.794 260.617 36.6574 258.162 36.6305H254.857C254.371 36.8193 253.926 37.0892 253.548 37.4264C253.089 37.8042 252.86 38.3303 252.86 38.9779C252.86 39.6524 253.049 40.165 253.427 40.5158C253.818 40.88 254.304 41.1229 254.816 41.2443C255.423 41.4062 256.03 41.4871 256.664 41.5141C257.366 41.5546 258.094 41.5816 258.836 41.5951C259.632 41.6085 260.739 41.6625 262.128 41.7569C263.518 41.8514 264.516 41.9053 265.096 41.9188C265.973 41.9593 266.823 42.1617 267.619 42.5259C268.482 42.9171 269.251 43.4298 269.926 44.0504ZM267.794 50.6608C267.794 49.6355 267.551 48.7991 267.079 48.1515C266.607 47.4905 265.892 47.0453 264.921 46.816C264.408 46.7485 263.369 46.6676 261.777 46.5731C260.185 46.4787 258.351 46.4382 256.26 46.4382C254.29 46.816 252.9 47.4635 252.064 48.3674C251.241 49.2713 250.823 50.4315 250.823 51.848C250.823 52.4821 250.958 53.1026 251.228 53.6827C251.497 54.2628 251.97 54.8025 252.644 55.2881C253.278 55.7603 254.142 56.1515 255.207 56.4483C256.273 56.7451 257.595 56.8935 259.147 56.8935C261.818 56.8935 263.922 56.3809 265.474 55.3556C267.025 54.3303 267.794 52.7654 267.794 50.6608ZM262.56 28.0773C262.56 25.9458 262.128 24.246 261.265 22.9913C260.401 21.7232 259.187 21.0891 257.622 21.0891C256.853 21.0622 256.098 21.251 255.423 21.6153C254.803 21.9795 254.29 22.5057 253.939 23.1262C253.548 23.8008 253.292 24.5293 253.157 25.2983C252.995 26.1617 252.927 27.0251 252.927 27.902C252.927 29.9256 253.373 31.5714 254.25 32.8396C255.126 34.1077 256.273 34.7553 257.676 34.7553C259.241 34.7553 260.455 34.1212 261.292 32.8531C262.142 31.6119 262.56 30.0065 262.56 28.0773Z" fill="#FFCC33"/>
<path d="M295.949 23.3825C295.963 24.2594 295.734 25.1093 295.261 25.8513C294.803 26.5663 294.101 26.9306 293.157 26.9306C292.132 26.9306 291.363 26.6607 290.823 26.1346C290.283 25.6085 290.014 25.0284 290.014 24.3808C290.014 24.0166 290.04 23.6523 290.108 23.2881C290.175 22.9643 290.229 22.627 290.283 22.3032C289.433 22.3032 288.422 22.654 287.275 23.342C286.088 24.084 285.076 25.0958 284.361 26.2965V41.9727C284.361 42.6068 284.482 43.1329 284.725 43.5241C284.995 43.9424 285.413 44.2661 285.885 44.428C286.452 44.6304 287.046 44.7653 287.653 44.8327C288.368 44.9272 289.002 44.9811 289.528 45.0216V46.8294H275.336V45.0351L276.631 44.9272C277.022 44.9002 277.413 44.8327 277.791 44.7113C278.263 44.5764 278.668 44.2661 278.924 43.8479C279.167 43.4432 279.288 42.9036 279.288 42.256V25.6489C279.288 25.0688 279.153 24.5022 278.897 23.9896C278.654 23.4634 278.263 23.0182 277.791 22.681C277.413 22.4516 276.995 22.2897 276.563 22.2088C276.064 22.1009 275.551 22.0334 275.039 22.0064V20.1987L283.997 19.6051L284.374 19.9828V23.7737H284.509C285.643 22.3032 286.897 21.1835 288.273 20.4145C289.663 19.6456 290.917 19.2678 292.064 19.2678C293.211 19.2678 294.142 19.6456 294.87 20.3876C295.599 21.1295 295.949 22.1279 295.949 23.3825Z" fill="#FFCC33"/>
<path d="M324.523 33.1094C324.523 35.0116 324.213 36.8868 323.619 38.6945C323.012 40.5293 322.162 42.0807 321.056 43.3488C319.869 44.7519 318.371 45.8716 316.685 46.6001C315.026 47.3151 313.164 47.6659 311.113 47.6659C309.427 47.6794 307.768 47.3421 306.216 46.6945C304.665 46.047 303.248 45.0891 302.075 43.8615C300.847 42.5799 299.889 41.0554 299.241 39.3961C298.54 37.6423 298.189 35.6726 298.189 33.4871C298.189 29.278 299.417 25.8379 301.872 23.1667C304.327 20.4956 307.538 19.1465 311.505 19.1465C315.282 19.1465 318.385 20.4146 320.84 22.9509C323.295 25.5006 324.523 28.8868 324.523 33.1094ZM318.87 33.1633C318.87 31.7063 318.736 30.2628 318.466 28.8328C318.196 27.3084 317.791 26.0268 317.238 24.9745C316.698 23.8952 315.916 22.9644 314.945 22.2628C314 21.5748 312.84 21.2375 311.464 21.2375C310.061 21.2375 308.86 21.5883 307.862 22.2763C306.837 23.0048 306 23.9897 305.447 25.1094C304.84 26.2966 304.422 27.5782 304.22 28.9003C303.99 30.2628 303.869 31.6389 303.869 33.0284C303.855 34.6473 304.004 36.2797 304.287 37.8716C304.53 39.2612 304.989 40.5967 305.636 41.8514C306.189 42.9441 306.985 43.875 307.97 44.59C308.914 45.251 310.075 45.5883 311.464 45.5883C313.744 45.5883 315.552 44.4821 316.887 42.2831C318.209 40.0706 318.87 37.0352 318.87 33.1633Z" fill="#FFCC33"/>
<path d="M91.2547 69.6209L91.0793 72.4405H83.1333V71.9548C83.2682 71.9413 83.4436 71.9278 83.6729 71.9008C83.8213 71.8874 83.9697 71.8604 84.1046 71.8064C84.2261 71.7525 84.334 71.658 84.4014 71.5366C84.4689 71.4017 84.4959 71.2668 84.4824 71.1319V64.2516C84.4824 64.1167 84.4554 63.9818 84.4149 63.8604C84.3475 63.7255 84.2395 63.631 84.1046 63.5771C83.9427 63.5096 83.7809 63.4557 83.619 63.4152C83.4571 63.3747 83.2952 63.3477 83.1333 63.3342V62.8621H90.5397V65.169H90.0271C89.9056 64.7643 89.7033 64.4 89.447 64.0762C89.1502 63.6985 88.8669 63.4826 88.597 63.4422C88.4621 63.4287 88.2868 63.4152 88.0979 63.4017C87.909 63.3882 87.6797 63.3882 87.4368 63.3882H85.9394V67.1926H87.0186C87.275 67.2061 87.5313 67.1791 87.7741 67.0982C87.936 67.0307 88.0844 66.9093 88.1923 66.7744C88.3002 66.6125 88.3947 66.4371 88.4486 66.2482C88.5161 66.0459 88.5566 65.8435 88.5836 65.6277H89.0962V69.3916H88.5836C88.5566 69.1622 88.5161 68.9329 88.4352 68.7036C88.3812 68.5147 88.3002 68.3393 88.1923 68.1774C88.0709 68.0155 87.909 67.8941 87.7201 67.8401C87.4908 67.7862 87.248 67.7592 87.0186 67.7592H85.9394V70.6327C85.9394 70.8621 85.9529 71.0914 86.0068 71.3073C86.0338 71.4557 86.1148 71.5906 86.2497 71.685C86.3981 71.7794 86.5599 71.8334 86.7218 71.8469C87.0051 71.8739 87.3019 71.8874 87.5852 71.8874H88.1788C88.3812 71.8874 88.5836 71.8739 88.7859 71.8604C88.9613 71.8469 89.1367 71.8064 89.3121 71.7659C89.4604 71.739 89.5954 71.6715 89.7033 71.5771C89.9596 71.2803 90.1889 70.9565 90.3508 70.5923C90.5262 70.282 90.6611 69.9582 90.7825 69.6209H91.2547Z" fill="#FFCC33"/>
<path d="M98.4588 72.4404H95.4099V71.9952C95.6123 71.9682 95.7876 71.9547 95.9225 71.9277C96.0575 71.9007 96.1384 71.8468 96.1384 71.7523C96.1249 71.6849 96.1114 71.6174 96.071 71.5635C96.0305 71.4825 95.9765 71.4016 95.936 71.3206C95.8281 71.1453 95.6662 70.9159 95.4774 70.6191C95.2885 70.3223 95.0457 69.9716 94.7624 69.5668C94.533 69.8636 94.3172 70.1469 94.1148 70.4168C93.9124 70.6866 93.7101 70.9834 93.4942 71.2936C93.4537 71.3476 93.4268 71.4016 93.3998 71.4555C93.3728 71.5095 93.3593 71.5635 93.3458 71.6174C93.3458 71.7119 93.4133 71.7928 93.5347 71.8603C93.7236 71.9412 93.9124 71.9817 94.1148 71.9952V72.4269H91.646V72.0087C91.9023 71.9412 92.1586 71.8333 92.388 71.6849C92.5769 71.55 92.7522 71.3881 92.9006 71.2127C93.0355 71.0373 93.2379 70.781 93.4807 70.4707C93.7236 70.1604 94.0473 69.7287 94.4521 69.1891L93.6156 67.9884C93.2919 67.5162 93.0086 67.125 92.7927 66.8012C92.6848 66.6393 92.5499 66.5044 92.388 66.383C92.1991 66.2616 91.9698 66.2076 91.7539 66.2211V65.7759H94.6544V66.2211C94.5195 66.2211 94.3711 66.2346 94.2362 66.2481C94.1013 66.2616 94.0338 66.3021 94.0338 66.3695C94.0338 66.4235 94.0473 66.464 94.0743 66.5044C94.1013 66.5584 94.1418 66.6124 94.1823 66.6663C94.2767 66.8147 94.4386 67.0576 94.6409 67.3679C94.8433 67.6916 95.0726 68.0289 95.3155 68.3797L95.8686 67.6242C96.0844 67.3409 96.2733 67.0576 96.4487 66.8012C96.4757 66.7608 96.4892 66.7203 96.5027 66.6798C96.5161 66.6394 96.5296 66.5854 96.5296 66.5449C96.5296 66.4505 96.4487 66.383 96.3003 66.3156C96.1519 66.2616 96.0035 66.2211 95.8551 66.1942V65.7625H98.3104V66.1807C98.0271 66.2481 97.7573 66.356 97.501 66.5044C97.3121 66.6259 97.1502 66.7608 97.0018 66.9361C96.8534 67.125 96.678 67.3544 96.4757 67.6242L95.6123 68.7574C96.017 69.3375 96.3543 69.8097 96.6106 70.1739C96.8669 70.5382 97.1232 70.9159 97.3796 71.3206C97.501 71.496 97.6359 71.6579 97.8113 71.7928C98.0136 71.9142 98.2295 71.9952 98.4723 71.9952L98.4588 72.4404Z" fill="#FFCC33"/>
<path d="M105.11 66.5719C105.379 66.8956 105.595 67.2734 105.73 67.6646C105.879 68.1233 105.959 68.609 105.946 69.0946C105.946 69.5938 105.865 70.0794 105.676 70.5381C105.514 70.9428 105.285 71.3206 104.975 71.6444C104.691 71.9412 104.341 72.184 103.963 72.3594C103.599 72.5213 103.194 72.6157 102.789 72.6022C102.452 72.6157 102.128 72.5617 101.804 72.4673C101.575 72.3998 101.373 72.2919 101.17 72.157H101.116V74.1536C101.116 74.2885 101.143 74.4369 101.211 74.5584C101.278 74.6663 101.373 74.7472 101.508 74.8012C101.656 74.8552 101.818 74.8956 101.966 74.9226C102.128 74.9496 102.29 74.9766 102.465 74.9901V75.4353H98.7554V74.9901C98.8903 74.9766 99.0252 74.9631 99.1602 74.9631C99.2816 74.9496 99.403 74.9226 99.5109 74.8956C99.6323 74.8552 99.7403 74.7742 99.7942 74.6528C99.8482 74.5314 99.8752 74.383 99.8752 74.2481V67.1789C99.8752 67.044 99.8347 66.9091 99.7672 66.7877C99.6998 66.6663 99.6053 66.5584 99.4974 66.4909C99.3895 66.4235 99.2816 66.383 99.1602 66.3695C99.0252 66.3425 98.8769 66.3155 98.7419 66.3155V65.8703L101.008 65.7219L101.103 65.8029V66.5449L101.157 66.5584C101.4 66.2751 101.696 66.0457 102.034 65.8838C102.344 65.7084 102.708 65.614 103.072 65.614C103.464 65.614 103.855 65.695 104.206 65.8703C104.556 66.0322 104.853 66.2751 105.11 66.5719ZM104.003 71.3611C104.192 71.0643 104.327 70.7405 104.408 70.3897C104.502 69.985 104.543 69.5668 104.543 69.1486C104.543 68.8113 104.502 68.4606 104.435 68.1368C104.368 67.813 104.26 67.5162 104.098 67.2329C103.949 66.9766 103.747 66.7607 103.491 66.5988C103.221 66.4369 102.911 66.3425 102.6 66.356C102.303 66.3425 102.007 66.4235 101.75 66.5719C101.521 66.7068 101.319 66.8956 101.143 67.098V71.0373C101.197 71.1722 101.251 71.2936 101.346 71.415C101.44 71.5364 101.535 71.6579 101.656 71.7523C101.791 71.8602 101.939 71.9547 102.101 72.0221C102.29 72.1031 102.492 72.13 102.695 72.13C102.951 72.13 103.207 72.0626 103.423 71.9277C103.653 71.7793 103.855 71.5904 104.003 71.3611Z" fill="#FFCC33"/>
<path d="M112.826 70.8754C112.57 71.3881 112.179 71.8198 111.707 72.1436C111.221 72.4674 110.668 72.6292 110.088 72.6157C109.602 72.6292 109.13 72.5348 108.685 72.3324C108.294 72.1571 107.956 71.8872 107.686 71.5635C107.417 71.2262 107.228 70.8485 107.106 70.4303C106.971 69.9851 106.917 69.5264 106.917 69.0542C106.917 68.6225 106.985 68.1908 107.12 67.7861C107.255 67.3813 107.457 67.0036 107.727 66.6663C107.983 66.3426 108.307 66.0862 108.685 65.8974C109.076 65.695 109.521 65.6006 109.966 65.6006C110.398 65.5871 110.816 65.668 111.208 65.8299C111.531 65.9648 111.828 66.1807 112.044 66.4505C112.26 66.7068 112.408 67.0171 112.503 67.3409C112.611 67.7051 112.665 68.0829 112.651 68.4471V68.8923H108.253C108.253 69.297 108.294 69.6883 108.374 70.0795C108.442 70.4168 108.577 70.7405 108.766 71.0238C108.941 71.2802 109.17 71.496 109.454 71.6444C109.764 71.8063 110.115 71.8738 110.466 71.8738C110.83 71.8873 111.194 71.7793 111.504 71.5904C111.801 71.4016 112.071 71.0643 112.341 70.5786L112.826 70.8754ZM111.342 68.3392C111.342 68.0694 111.315 67.7996 111.275 67.5297C111.248 67.2869 111.167 67.0441 111.073 66.8147C110.978 66.6124 110.83 66.437 110.641 66.3156C110.439 66.1807 110.196 66.1132 109.939 66.1132C109.481 66.1132 109.036 66.3291 108.766 66.7068C108.455 67.098 108.28 67.6377 108.253 68.3392H111.342Z" fill="#FFCC33"/>
<path d="M118.681 66.6394C118.681 66.8552 118.627 67.0711 118.519 67.2464C118.411 67.4218 118.209 67.5297 118.007 67.5163C117.791 67.5297 117.588 67.4623 117.427 67.3139C117.305 67.206 117.238 67.0441 117.224 66.8822C117.224 66.7878 117.224 66.7068 117.251 66.6124C117.265 66.5314 117.278 66.4505 117.292 66.3695C117.022 66.383 116.766 66.4775 116.55 66.6259C116.253 66.8147 116.01 67.0576 115.835 67.3544V71.2262C115.835 71.3611 115.862 71.496 115.929 71.6039C115.997 71.7119 116.104 71.7928 116.212 71.8333C116.347 71.8872 116.496 71.9142 116.644 71.9412C116.82 71.9682 116.981 71.9817 117.103 71.9817V72.4269H113.595V71.9817L113.919 71.9547C114.013 71.9547 114.108 71.9277 114.202 71.9007C114.324 71.8738 114.418 71.7928 114.486 71.6849C114.553 71.5635 114.58 71.4286 114.58 71.2937V67.1925C114.58 67.0576 114.54 66.9092 114.486 66.7878C114.432 66.6528 114.337 66.5449 114.216 66.464C114.121 66.41 114.013 66.3695 113.919 66.3426C113.798 66.3156 113.663 66.3021 113.541 66.2886V65.8434L115.754 65.695L115.848 65.7894V66.7338H115.875C116.118 66.3965 116.442 66.1132 116.806 65.8974C117.089 65.722 117.413 65.6276 117.75 65.6141C118.007 65.6006 118.263 65.695 118.438 65.8839C118.614 66.1132 118.695 66.3695 118.681 66.6394Z" fill="#FFCC33"/>
<path d="M123.363 72.1437C123.066 72.2651 122.796 72.373 122.526 72.454C122.216 72.5484 121.892 72.5889 121.569 72.5754C121.015 72.5754 120.624 72.4405 120.395 72.1572C120.166 71.8739 120.058 71.4826 120.058 70.97V66.4641H118.857V65.8165H120.085V63.7524H121.312V65.8165H123.228V66.4641H121.339V70.174C121.339 70.4034 121.353 70.6462 121.366 70.8755C121.38 71.0509 121.434 71.2128 121.515 71.3612C121.582 71.4961 121.703 71.5905 121.838 71.658C122.027 71.7389 122.216 71.7659 122.418 71.7659C122.526 71.7659 122.702 71.7524 122.918 71.739C123.08 71.7255 123.228 71.6985 123.376 71.658L123.363 72.1437Z" fill="#FFCC33"/>
<path d="M133.481 68.0425C133.683 68.2583 133.831 68.5146 133.926 68.7845C134.034 69.0813 134.074 69.405 134.074 69.7153C134.088 70.5248 133.75 71.2937 133.13 71.8064C132.509 72.3595 131.727 72.6293 130.809 72.6293C130.378 72.6293 129.946 72.5619 129.528 72.427C129.137 72.3055 128.772 72.1571 128.422 71.9413L128.125 72.4404H127.585L127.491 69.1622H128.03C128.138 69.5399 128.26 69.9042 128.422 70.255C128.57 70.5922 128.772 70.889 129.015 71.1723C129.245 71.4286 129.528 71.6445 129.838 71.8064C130.175 71.9683 130.553 72.0492 130.931 72.0492C131.201 72.0492 131.484 72.0087 131.74 71.9278C132.159 71.7929 132.482 71.4691 132.631 71.0644C132.698 70.8351 132.739 70.6057 132.739 70.3764C132.739 69.9986 132.631 69.6209 132.415 69.3106C132.185 68.9598 131.848 68.7035 131.444 68.5551C131.147 68.4337 130.809 68.3123 130.445 68.1639C130.081 68.0155 129.744 67.8941 129.474 67.7592C128.975 67.5568 128.543 67.2195 128.219 66.8013C127.922 66.4101 127.774 65.8974 127.774 65.2634C127.774 64.9126 127.841 64.5619 128.003 64.2516C128.152 63.9278 128.368 63.6445 128.637 63.4152C128.907 63.1723 129.218 62.9834 129.555 62.862C129.906 62.7271 130.283 62.6597 130.661 62.6597C131.066 62.6597 131.47 62.7271 131.848 62.862C132.186 62.9834 132.523 63.1453 132.82 63.3342L133.089 62.8755H133.629L133.683 66.0458H133.13C133.035 65.6816 132.914 65.3308 132.793 65.0071C132.671 64.6833 132.509 64.3865 132.307 64.1032C132.118 63.8469 131.875 63.631 131.605 63.4826C131.295 63.3207 130.931 63.2398 130.58 63.2533C130.175 63.2398 129.784 63.3882 129.487 63.658C129.191 63.9143 129.029 64.2786 129.042 64.6698C129.029 65.034 129.137 65.3983 129.339 65.6951C129.555 65.9919 129.852 66.2212 130.175 66.3696C130.499 66.5315 130.823 66.6664 131.147 66.7743C131.457 66.8823 131.767 67.0037 132.064 67.1386C132.334 67.26 132.59 67.3814 132.847 67.5433C133.076 67.6647 133.292 67.8401 133.481 68.0425Z" fill="#FFCC33"/>
<path d="M141.589 69.0407C141.589 69.5129 141.508 69.9716 141.359 70.4168C141.224 70.835 141.008 71.2262 140.725 71.5635C140.428 71.9142 140.064 72.184 139.646 72.3729C139.214 72.5618 138.742 72.6427 138.27 72.6427C137.852 72.6427 137.433 72.5618 137.056 72.3999C136.678 72.238 136.327 72.0087 136.03 71.6984C135.734 71.3746 135.491 71.0104 135.329 70.5921C135.153 70.12 135.059 69.6343 135.073 69.1351C135.073 68.0963 135.369 67.2464 135.976 66.5854C136.584 65.9243 137.379 65.6006 138.351 65.6006C139.214 65.5736 140.051 65.9243 140.658 66.5449C141.292 67.1655 141.589 68.0019 141.589 69.0407ZM140.199 69.0542C140.199 68.6899 140.159 68.3392 140.091 67.9884C140.037 67.6512 139.929 67.3409 139.794 67.0306C139.659 66.7608 139.471 66.5314 139.228 66.356C138.971 66.1807 138.675 66.0862 138.364 66.0997C138.054 66.0862 137.744 66.1807 137.474 66.356C137.218 66.5314 137.015 66.7743 136.88 67.0576C136.732 67.3544 136.624 67.6781 136.584 68.0019C136.53 68.3392 136.503 68.6765 136.489 69.0137C136.489 69.4184 136.516 69.8232 136.597 70.2144C136.664 70.5517 136.772 70.8889 136.934 71.1992C137.069 71.469 137.272 71.6984 137.514 71.8738C137.771 72.0491 138.068 72.1301 138.378 72.1166C138.944 72.1166 139.39 71.8468 139.713 71.3071C140.037 70.7675 140.199 70.0255 140.199 69.0542Z" fill="#FFCC33"/>
<path d="M145.663 72.4404H142.425V71.9952L142.749 71.9682C142.843 71.9548 142.938 71.9413 143.045 71.9143C143.167 71.8738 143.261 71.8064 143.329 71.6984C143.396 71.577 143.423 71.4421 143.423 71.3072V63.5905C143.423 63.4286 143.383 63.2802 143.315 63.1318C143.248 62.9969 143.167 62.889 143.045 62.7946C142.911 62.7136 142.762 62.6731 142.6 62.6462C142.425 62.6057 142.25 62.5787 142.088 62.5652V62.1335L144.597 61.9851L144.691 62.093V71.2128C144.691 71.3477 144.718 71.4826 144.786 71.604C144.853 71.7119 144.948 71.7929 145.069 71.8333C145.164 71.8738 145.258 71.9143 145.366 71.9413C145.474 71.9683 145.582 71.9817 145.69 71.9817L145.663 72.4404Z" fill="#FFCC33"/>
<path d="M153.622 72.3189L151.45 72.4673L151.342 72.3729V71.5364H151.302C151.194 71.6444 151.072 71.7658 150.937 71.9007C150.789 72.0356 150.641 72.1435 150.479 72.2514C150.29 72.3594 150.101 72.4538 149.899 72.5213C149.642 72.5887 149.373 72.6292 149.103 72.6157C148.523 72.6157 148.064 72.4268 147.754 72.0356C147.443 71.6578 147.281 71.0912 147.295 70.3627V67.1924C147.295 67.0575 147.268 66.9091 147.201 66.7877C147.079 66.5718 146.863 66.4234 146.634 66.383C146.512 66.356 146.378 66.3425 146.243 66.329V65.8838L148.455 65.7219L148.563 65.8164V70.4302C148.563 70.9159 148.671 71.2666 148.887 71.5094C149.076 71.7388 149.359 71.8737 149.669 71.8737C149.899 71.8737 150.115 71.8332 150.33 71.7658C150.506 71.6983 150.668 71.6039 150.816 71.496C150.937 71.4015 151.045 71.3071 151.14 71.1992C151.221 71.1047 151.288 71.0103 151.356 70.9024V67.1385C151.356 67.0035 151.329 66.8686 151.261 66.7472C151.194 66.6258 151.113 66.5314 151.005 66.4504C150.897 66.383 150.776 66.356 150.641 66.356C150.479 66.3425 150.303 66.329 150.101 66.329V65.8838L152.516 65.7219L152.624 65.8164V71.0912C152.624 71.2261 152.651 71.361 152.718 71.4825C152.786 71.5904 152.88 71.6848 152.988 71.7523C153.082 71.8062 153.177 71.8332 153.285 71.8467C153.406 71.8602 153.528 71.8737 153.663 71.8737L153.622 72.3189Z" fill="#FFCC33"/>
<path d="M158.546 72.1437C158.25 72.2651 157.98 72.373 157.71 72.454C157.4 72.5484 157.076 72.5889 156.752 72.5754C156.199 72.5754 155.808 72.4405 155.578 72.1572C155.349 71.8739 155.241 71.4826 155.241 70.97V66.4641H154.041V65.8165H155.268V63.7524H156.496V65.8165H158.412V66.4641H156.523V70.174C156.523 70.4034 156.523 70.6462 156.55 70.8755C156.563 71.0509 156.617 71.2128 156.698 71.3612C156.766 71.4961 156.887 71.5905 157.022 71.658C157.211 71.7389 157.4 71.7659 157.602 71.7659C157.71 71.7659 157.885 71.7524 158.101 71.739C158.263 71.7255 158.412 71.6985 158.56 71.658L158.546 72.1437Z" fill="#FFCC33"/>
<path d="M162.432 72.4403H159.221V71.9951L159.545 71.9681C159.639 71.9681 159.734 71.9412 159.828 71.9142C159.949 71.8872 160.044 71.8062 160.111 71.6983C160.179 71.5769 160.206 71.442 160.206 71.3071V67.2059C160.206 67.071 160.179 66.9361 160.111 66.8147C160.044 66.6933 159.949 66.5988 159.841 66.5179C159.72 66.4504 159.599 66.41 159.464 66.383C159.315 66.3425 159.167 66.329 159.019 66.3155V65.8703L161.366 65.7219L161.46 65.8164V71.2396C161.46 71.3745 161.487 71.5094 161.555 71.6309C161.622 71.7388 161.717 71.8197 161.838 71.8602C161.933 71.9007 162.027 71.9277 162.121 71.9546C162.229 71.9816 162.324 71.9951 162.432 72.0086V72.4403ZM161.595 63.0777C161.595 63.3206 161.514 63.5634 161.339 63.7523C161.191 63.9412 160.961 64.0491 160.718 64.0356C160.489 64.0356 160.273 63.9412 160.125 63.7658C159.963 63.6039 159.868 63.3745 159.868 63.1452C159.868 62.9024 159.949 62.673 160.125 62.4976C160.273 62.3223 160.489 62.2278 160.718 62.2278C160.961 62.2143 161.191 62.3088 161.352 62.4842C161.501 62.646 161.595 62.8619 161.595 63.0777Z" fill="#FFCC33"/>
<path d="M169.744 69.0407C169.744 69.5129 169.663 69.9716 169.514 70.4168C169.379 70.835 169.164 71.2262 168.88 71.5635C168.583 71.9142 168.219 72.184 167.801 72.3729C167.369 72.5618 166.897 72.6427 166.425 72.6427C166.007 72.6427 165.588 72.5618 165.211 72.3999C164.833 72.238 164.482 72.0087 164.185 71.6984C163.889 71.3746 163.646 71.0104 163.484 70.5921C163.309 70.12 163.214 69.6343 163.228 69.1351C163.228 68.0963 163.524 67.2464 164.131 66.5854C164.739 65.9243 165.535 65.6006 166.519 65.6006C167.383 65.5736 168.219 65.9243 168.826 66.5449C169.447 67.1655 169.744 68.0019 169.744 69.0407ZM168.354 69.0542C168.354 68.6899 168.314 68.3392 168.246 67.9884C168.192 67.6512 168.084 67.3409 167.936 67.0306C167.801 66.7608 167.612 66.5314 167.369 66.356C167.113 66.1807 166.816 66.0997 166.506 66.0997C166.196 66.0862 165.885 66.1807 165.615 66.356C165.359 66.5314 165.157 66.7743 165.022 67.0576C164.873 67.3544 164.766 67.6781 164.712 68.0019C164.658 68.3392 164.631 68.6765 164.617 69.0137C164.617 69.4184 164.644 69.8232 164.725 70.2144C164.793 70.5517 164.9 70.8889 165.062 71.1992C165.197 71.469 165.4 71.6984 165.642 71.8738C165.899 72.0491 166.196 72.1301 166.506 72.1166C167.072 72.1166 167.518 71.8468 167.841 71.3071C168.165 70.7675 168.354 70.0255 168.354 69.0542Z" fill="#FFCC33"/>
<path d="M178.054 72.4403H174.803V71.9951L175.14 71.9681C175.248 71.9681 175.342 71.9412 175.45 71.9142C175.572 71.8872 175.666 71.8063 175.734 71.6983C175.801 71.5769 175.828 71.442 175.828 71.3071V67.8939C175.828 67.4218 175.72 67.0575 175.491 66.8012C175.288 66.5584 174.992 66.4235 174.681 66.4235C174.452 66.4235 174.236 66.4639 174.02 66.5314C173.831 66.5988 173.656 66.6933 173.494 66.8012C173.359 66.8956 173.238 67.0036 173.143 67.1385C173.076 67.2329 173.009 67.3273 172.955 67.4218V71.2396C172.955 71.3746 172.982 71.5095 173.049 71.6174C173.116 71.7253 173.211 71.8063 173.332 71.8467C173.427 71.8872 173.535 71.9277 173.643 71.9547C173.751 71.9816 173.872 71.9951 173.98 71.9951V72.4403H170.715V71.9951L171.039 71.9681C171.133 71.9681 171.228 71.9412 171.322 71.9142C171.444 71.8872 171.538 71.8063 171.605 71.6983C171.673 71.5769 171.7 71.442 171.7 71.3071V67.2059C171.7 67.0575 171.673 66.9091 171.605 66.7877C171.538 66.6663 171.457 66.5584 171.336 66.4774C171.241 66.4235 171.133 66.383 171.039 66.356C170.917 66.329 170.783 66.3155 170.661 66.302V65.8568L172.874 65.7085L172.968 65.8029V66.7472H172.995C173.103 66.6393 173.238 66.5044 173.4 66.356C173.548 66.2211 173.697 66.0997 173.858 65.9918C174.047 65.8703 174.236 65.7894 174.452 65.7219C174.708 65.641 174.965 65.614 175.234 65.614C175.869 65.614 176.341 65.8164 176.651 66.2076C176.961 66.5988 177.11 67.1385 177.11 67.7995V71.2666C177.11 71.4015 177.137 71.523 177.191 71.6444C177.258 71.7523 177.353 71.8332 177.474 71.8737C177.568 71.9142 177.663 71.9412 177.757 71.9681C177.865 71.9951 177.973 72.0086 178.081 72.0086L178.054 72.4403Z" fill="#FFCC33"/>
<path d="M183.261 69.1757C183.437 69.3376 183.585 69.5264 183.693 69.7423C183.801 69.9851 183.855 70.255 183.841 70.5248C183.855 71.1049 183.599 71.6715 183.153 72.0357C182.695 72.427 182.101 72.6158 181.359 72.6158C180.995 72.6158 180.631 72.5484 180.293 72.4135C180.051 72.319 179.808 72.1841 179.592 72.0357L179.457 72.4674H178.958L178.89 70.147H179.349C179.403 70.3629 179.47 70.5652 179.578 70.7676C179.686 70.9969 179.835 71.2128 180.01 71.4017C180.185 71.604 180.401 71.7794 180.644 71.9008C180.9 72.0357 181.184 72.1032 181.467 72.1032C181.899 72.1032 182.236 72.0087 182.465 71.8064C182.708 71.5905 182.83 71.2802 182.816 70.9565C182.816 70.7811 182.776 70.6192 182.708 70.4708C182.627 70.3224 182.519 70.201 182.384 70.1066C182.223 69.9986 182.034 69.9042 181.845 69.8232C181.629 69.7423 181.386 69.6614 181.13 69.5804C180.887 69.513 180.658 69.4185 180.428 69.3241C180.185 69.2297 179.97 69.0947 179.767 68.9329C179.565 68.771 179.403 68.5821 179.282 68.3528C179.147 68.1099 179.093 67.8266 179.093 67.5433C179.079 67.0172 179.309 66.518 179.7 66.1673C180.105 65.7895 180.644 65.6007 181.319 65.6007C181.589 65.6007 181.858 65.6411 182.115 65.6951C182.344 65.749 182.573 65.83 182.776 65.9379L182.938 65.5872H183.423L183.531 67.7187H183.073C182.992 67.2735 182.776 66.8688 182.465 66.545C182.155 66.2482 181.75 66.0863 181.319 66.0998C181.008 66.0863 180.698 66.1808 180.455 66.3831C180.253 66.545 180.132 66.8013 180.145 67.0577C180.145 67.233 180.172 67.4084 180.253 67.5703C180.334 67.7052 180.442 67.8266 180.563 67.9076C180.725 68.0155 180.887 68.0964 181.076 68.1639C181.278 68.2448 181.535 68.3258 181.831 68.4337C182.115 68.5281 182.398 68.6361 182.668 68.771C182.843 68.8789 183.059 69.0138 183.261 69.1757Z" fill="#FFCC33"/>
<path d="M193.123 62.808C193.123 62.9969 193.069 63.1722 192.961 63.3206C192.84 63.469 192.651 63.55 192.462 63.523C192.327 63.523 192.206 63.496 192.098 63.4286C191.99 63.3611 191.895 63.2802 191.801 63.1857C191.706 63.0778 191.626 62.9699 191.558 62.8485C191.477 62.727 191.423 62.6191 191.369 62.5517C191.072 62.5652 190.83 62.781 190.668 63.1857C190.506 63.5905 190.425 64.238 190.425 65.1284V65.8029H192.138V66.4505H190.411V71.2262C190.411 71.3611 190.438 71.496 190.506 71.6039C190.573 71.7119 190.681 71.7928 190.789 71.8333C190.924 71.8872 191.072 71.9142 191.221 71.9277C191.396 71.9547 191.558 71.9682 191.68 71.9817V72.4269H188.172V71.9817L188.496 71.9547C188.59 71.9412 188.685 71.9277 188.779 71.9007C188.9 71.8738 188.995 71.7928 189.062 71.6849C189.13 71.5635 189.157 71.4286 189.157 71.2937V66.4505H187.848V65.8029H189.17V65.3712C189.17 64.3594 189.427 63.55 189.953 62.9159C190.425 62.3088 191.153 61.9581 191.922 61.9716C192.327 61.9716 192.624 62.0525 192.826 62.2144C193.015 62.3493 193.123 62.5787 193.123 62.808Z" fill="#FFCC33"/>
<path d="M199.154 69.0407C199.154 69.5129 199.073 69.9716 198.924 70.4168C198.789 70.835 198.573 71.2262 198.29 71.5635C197.993 71.9142 197.629 72.184 197.211 72.3729C196.779 72.5618 196.307 72.6427 195.835 72.6427C195.417 72.6427 194.998 72.5618 194.621 72.3999C194.243 72.238 193.892 72.0087 193.595 71.6984C193.299 71.3746 193.056 71.0104 192.894 70.5921C192.718 70.12 192.624 69.6343 192.638 69.1351C192.638 68.0963 192.934 67.2464 193.541 66.5854C194.148 65.9243 194.944 65.6006 195.916 65.6006C196.779 65.5736 197.616 65.9243 198.223 66.5449C198.843 67.1655 199.154 68.0019 199.154 69.0407ZM197.75 69.0542C197.75 68.6899 197.71 68.3392 197.643 67.9884C197.589 67.6512 197.481 67.3409 197.346 67.0306C197.211 66.7608 197.022 66.5314 196.779 66.356C196.523 66.1807 196.226 66.0997 195.916 66.0997C195.605 66.0862 195.295 66.1807 195.025 66.356C194.769 66.5314 194.567 66.7743 194.432 67.0576C194.283 67.3544 194.175 67.6781 194.135 68.0019C194.081 68.3392 194.054 68.6765 194.041 69.0137C194.041 69.4184 194.068 69.8232 194.148 70.2144C194.216 70.5517 194.324 70.8889 194.486 71.1992C194.621 71.469 194.823 71.6984 195.066 71.8738C195.322 72.0491 195.619 72.1301 195.929 72.1166C196.496 72.1166 196.941 71.8468 197.265 71.3071C197.589 70.781 197.75 70.0255 197.75 69.0542Z" fill="#FFCC33"/>
<path d="M205.197 66.6394C205.197 66.8552 205.143 67.0711 205.035 67.2464C204.927 67.4218 204.725 67.5297 204.523 67.5163C204.307 67.5297 204.104 67.4623 203.942 67.3139C203.821 67.206 203.754 67.0441 203.74 66.8822C203.74 66.7878 203.74 66.7068 203.767 66.6124C203.781 66.5314 203.794 66.4505 203.808 66.3695C203.538 66.383 203.281 66.4775 203.066 66.6259C202.769 66.8147 202.526 67.0576 202.351 67.3544V71.2262C202.351 71.3611 202.378 71.496 202.445 71.6039C202.512 71.7119 202.62 71.7928 202.728 71.8333C202.863 71.8872 203.012 71.9142 203.16 71.9412C203.335 71.9682 203.497 71.9817 203.619 71.9817V72.4269H200.111V71.9817L200.435 71.9547C200.529 71.9547 200.624 71.9277 200.718 71.9007C200.84 71.8738 200.934 71.7928 201.001 71.6849C201.069 71.5635 201.096 71.4286 201.096 71.2937V67.1925C201.096 67.0576 201.055 66.9092 201.001 66.7878C200.948 66.6528 200.853 66.5449 200.732 66.464C200.637 66.41 200.529 66.3695 200.435 66.3426C200.313 66.3156 200.179 66.3021 200.057 66.2886V65.8434L202.27 65.695L202.364 65.7894V66.7338H202.391C202.634 66.3965 202.958 66.1132 203.322 65.8974C203.605 65.722 203.929 65.6276 204.266 65.6141C204.523 65.6006 204.779 65.695 204.954 65.8839C205.116 66.1132 205.211 66.3695 205.197 66.6394Z" fill="#FFCC33"/>
<path d="M216.691 65.2634H216.179C216.057 64.8452 215.855 64.4675 215.585 64.1167C215.288 63.712 215.005 63.4826 214.722 63.4422C214.587 63.4287 214.411 63.4152 214.222 63.4017C214.034 63.3882 213.818 63.3882 213.575 63.3882H211.997V67.2331H213.103C213.373 67.2465 213.629 67.2061 213.885 67.1251C214.061 67.0577 214.222 66.9498 214.357 66.8014C214.465 66.6664 214.546 66.5046 214.6 66.3427C214.681 66.1268 214.722 65.8975 214.749 65.6681H215.261V69.432H214.749C214.735 69.2027 214.681 68.9734 214.614 68.7575C214.56 68.5686 214.479 68.3798 214.357 68.2179C214.222 68.056 214.047 67.9346 213.845 67.8806C213.602 67.8132 213.359 67.7862 213.103 67.7862H211.997V71.0779C211.997 71.2128 212.023 71.3477 212.091 71.4826C212.158 71.6041 212.266 71.712 212.401 71.7659C212.55 71.8199 212.685 71.8604 212.833 71.8739C213.008 71.9143 213.17 71.9413 213.346 71.9413V72.4135H209.19V71.9548C209.325 71.9413 209.501 71.9278 209.73 71.9143C209.878 71.9143 210.027 71.8874 210.162 71.8334C210.283 71.7794 210.391 71.6985 210.459 71.5771C210.526 71.4422 210.553 71.3073 210.553 71.1589V64.2516C210.553 64.1167 210.526 63.9818 210.472 63.8604C210.405 63.7255 210.297 63.631 210.162 63.5771C210 63.5096 209.838 63.4557 209.676 63.4152C209.514 63.3747 209.352 63.3477 209.19 63.3342V62.8621H216.705V65.2634H216.691Z" fill="#FFCC33"/>
<path d="M223.855 69.0407C223.855 69.5129 223.774 69.9716 223.626 70.4168C223.491 70.835 223.275 71.2262 222.992 71.5635C222.695 71.9142 222.33 72.184 221.912 72.3729C221.481 72.5618 221.008 72.6427 220.536 72.6427C220.118 72.6427 219.7 72.5618 219.322 72.3999C218.944 72.238 218.594 72.0087 218.297 71.6984C218 71.3746 217.757 71.0104 217.595 70.5921C217.42 70.12 217.325 69.6343 217.339 69.1351C217.339 68.0963 217.636 67.2464 218.243 66.5854C218.85 65.9243 219.646 65.6006 220.631 65.6006C221.494 65.5736 222.33 65.9243 222.938 66.5449C223.558 67.1655 223.855 68.0019 223.855 69.0407ZM222.465 69.0542C222.465 68.6899 222.425 68.3392 222.357 67.9884C222.304 67.6512 222.196 67.3409 222.047 67.0306C221.912 66.7608 221.723 66.5314 221.481 66.356C221.224 66.1807 220.927 66.0997 220.617 66.0997C220.307 66.0862 219.997 66.1807 219.727 66.356C219.47 66.5314 219.268 66.7743 219.133 67.0576C218.985 67.3544 218.877 67.6781 218.823 68.0019C218.769 68.3392 218.742 68.6765 218.728 69.0137C218.728 69.4184 218.755 69.8232 218.836 70.2144C218.904 70.5517 219.012 70.8889 219.174 71.1992C219.309 71.469 219.511 71.6984 219.754 71.8738C220.01 72.0491 220.307 72.1301 220.617 72.1166C221.184 72.1166 221.629 71.8468 221.953 71.3071C222.277 70.7675 222.465 70.0255 222.465 69.0542Z" fill="#FFCC33"/>
<path d="M231.302 69.0407C231.302 69.5129 231.221 69.9716 231.073 70.4168C230.938 70.835 230.722 71.2262 230.439 71.5635C230.142 71.9142 229.777 72.184 229.359 72.3729C228.928 72.5618 228.455 72.6427 227.983 72.6427C227.565 72.6427 227.147 72.5618 226.769 72.3999C226.391 72.238 226.041 72.0087 225.744 71.6984C225.447 71.3746 225.204 71.0104 225.042 70.5921C224.867 70.12 224.772 69.6343 224.786 69.1351C224.786 68.0963 225.083 67.2464 225.69 66.5854C226.297 65.9243 227.093 65.6006 228.064 65.6006C228.928 65.5736 229.764 65.9243 230.371 66.5449C231.005 67.1655 231.302 68.0019 231.302 69.0407ZM229.912 69.0542C229.912 68.6899 229.872 68.3392 229.804 67.9884C229.751 67.6512 229.643 67.3409 229.508 67.0306C229.373 66.7608 229.184 66.5314 228.941 66.356C228.685 66.1807 228.388 66.0997 228.078 66.0997C227.767 66.0862 227.457 66.1807 227.187 66.356C226.931 66.5314 226.729 66.7743 226.594 67.0576C226.445 67.3544 226.337 67.6781 226.297 68.0019C226.243 68.3392 226.216 68.6765 226.202 69.0137C226.202 69.4184 226.229 69.8232 226.31 70.2144C226.378 70.5517 226.486 70.8889 226.648 71.1992C226.783 71.469 226.985 71.6984 227.228 71.8738C227.484 72.0491 227.781 72.1301 228.091 72.1166C228.658 72.1166 229.103 71.8468 229.427 71.3071C229.751 70.7675 229.912 70.0255 229.912 69.0542Z" fill="#FFCC33"/>
<path d="M239.545 72.3189L237.224 72.4673L237.116 72.3729V71.7523L237.062 71.7388C236.82 72.0087 236.523 72.2245 236.199 72.3864C235.875 72.5483 235.511 72.6292 235.133 72.6292C234.756 72.6292 234.378 72.5483 234.041 72.3729C233.69 72.1975 233.379 71.9682 233.123 71.6579C232.84 71.3206 232.638 70.9429 232.489 70.5382C232.327 70.0795 232.246 69.5803 232.26 69.0947C232.26 68.6225 232.341 68.1638 232.503 67.7186C232.664 67.3004 232.894 66.9226 233.191 66.5854C233.474 66.2751 233.811 66.0323 234.202 65.8704C234.58 65.695 234.998 65.6006 235.417 65.6006C235.727 65.6006 236.037 65.641 236.334 65.722C236.604 65.7894 236.86 65.8839 237.103 66.0188V63.6984C237.103 63.523 237.076 63.3476 237.008 63.1857C236.955 63.0508 236.86 62.9159 236.739 62.835C236.577 62.7405 236.415 62.6731 236.226 62.6461C235.997 62.6056 235.767 62.5786 235.538 62.5651V62.1469L238.263 61.9985L238.371 62.1065V71.0643C238.371 71.1992 238.398 71.3476 238.465 71.469C238.533 71.577 238.627 71.6849 238.735 71.7523C238.843 71.8198 238.978 71.8468 239.1 71.8603C239.261 71.8737 239.41 71.8872 239.545 71.8872V72.3189ZM237.103 71.1452V67.2599C237.062 67.125 236.995 67.0036 236.928 66.8822C236.752 66.5854 236.482 66.356 236.172 66.2346C235.983 66.1537 235.767 66.1132 235.565 66.1267C235.309 66.1267 235.039 66.1941 234.823 66.3291C234.58 66.4775 234.378 66.6933 234.216 66.9226C234.027 67.2194 233.892 67.5432 233.825 67.8805C233.73 68.2987 233.676 68.7304 233.676 69.1756C233.676 69.5264 233.703 69.8636 233.784 70.2009C233.852 70.5112 233.973 70.7945 234.148 71.0643C234.297 71.3071 234.513 71.523 234.756 71.6714C235.012 71.8333 235.322 71.9142 235.632 71.9007C235.943 71.9142 236.253 71.8333 236.523 71.6579C236.739 71.523 236.928 71.3476 237.103 71.1452Z" fill="#FFCC33"/>
<path d="M252.847 66.8553C252.577 66.8823 252.307 66.9363 252.037 67.0172C251.795 67.0847 251.579 67.2196 251.417 67.4085C251.295 67.5569 251.201 67.7188 251.134 67.8806C251.039 68.0965 250.918 68.3393 250.783 68.6226C250.648 68.9059 250.513 69.1892 250.378 69.4725C250.23 69.7693 250.041 70.0526 249.838 70.309C250.041 70.5518 250.27 70.7946 250.499 71.0105C250.702 71.2129 250.931 71.4017 251.174 71.5636C251.417 71.685 251.673 71.7795 251.943 71.8334C252.213 71.9009 252.483 71.9413 252.752 71.9548V72.427H249.973L248.975 71.2803C248.827 71.4422 248.651 71.6041 248.462 71.7795C248.085 72.1302 247.639 72.3865 247.154 72.5484C246.884 72.6294 246.601 72.6699 246.317 72.6564C245.98 72.6564 245.643 72.6024 245.333 72.508C245.009 72.4135 244.698 72.2516 244.429 72.0493C244.159 71.8334 243.943 71.5636 243.795 71.2533C243.619 70.8891 243.538 70.4978 243.552 70.0931C243.552 69.5535 243.7 69.0274 243.997 68.5822C244.294 68.137 244.847 67.6513 245.643 67.1386C245.333 66.7339 245.049 66.3292 244.793 65.8975C244.591 65.5333 244.483 65.1285 244.496 64.7238C244.496 64.427 244.55 64.1437 244.685 63.8739C244.806 63.6176 244.995 63.3882 245.211 63.1994C245.44 63.0105 245.697 62.8756 245.967 62.7946C246.263 62.7002 246.56 62.6462 246.87 62.6462C247.194 62.6462 247.518 62.7002 247.815 62.8216C248.071 62.9161 248.287 63.0779 248.476 63.2668C248.638 63.4422 248.759 63.6446 248.84 63.8604C248.921 64.0763 248.962 64.3056 248.962 64.5349C248.975 65.0476 248.8 65.5467 248.462 65.9245C248.071 66.3562 247.612 66.7069 247.086 66.9633C247.505 67.5299 247.923 68.056 248.327 68.5282C248.732 69.0004 249.123 69.4591 249.488 69.9177C249.757 69.486 250 69.0408 250.189 68.5552C250.338 68.2044 250.419 67.8132 250.432 67.4354C250.432 67.287 250.324 67.1791 250.122 67.0982C249.838 66.9903 249.555 66.9093 249.258 66.8553V66.3832H252.86L252.847 66.8553ZM248.611 70.9026C248.193 70.3764 247.72 69.7963 247.194 69.1623C246.668 68.5282 246.25 68.0021 245.94 67.5569C245.602 67.7727 245.333 68.083 245.171 68.4473C245.009 68.8115 244.941 69.2162 244.941 69.6075C244.928 70.1606 245.103 70.7002 245.467 71.1319C245.818 71.5366 246.331 71.7525 246.87 71.739C247.208 71.739 247.531 71.6715 247.842 71.5231C248.139 71.3747 248.408 71.1724 248.611 70.9026ZM248.085 64.6564C248.085 64.1977 247.977 63.8469 247.788 63.6041C247.572 63.3478 247.262 63.2129 246.924 63.2398C246.736 63.2398 246.56 63.2803 246.398 63.3747C246.263 63.4557 246.142 63.5636 246.034 63.6985C245.953 63.8199 245.886 63.9548 245.845 64.1032C245.805 64.2247 245.791 64.3596 245.791 64.481C245.791 64.8048 245.872 65.1285 246.034 65.4253C246.25 65.83 246.506 66.2078 246.79 66.572C247.181 66.3697 247.518 66.0864 247.788 65.7221C247.99 65.4118 248.085 65.0341 248.085 64.6564Z" fill="#FFCC33"/>
<path d="M265.771 72.4404H261.791V71.9547C262.088 71.9412 262.384 71.9007 262.668 71.8198C262.897 71.7523 263.018 71.6714 263.018 71.577C263.018 71.523 263.019 71.4825 263.005 71.4286C262.992 71.3746 262.978 71.3206 262.965 71.2667L262.169 69.1217H258.809C258.688 69.4319 258.58 69.7152 258.499 69.9446C258.418 70.1739 258.351 70.3898 258.283 70.5921C258.229 70.7405 258.189 70.9024 258.162 71.0643C258.148 71.1588 258.135 71.2667 258.135 71.3611C258.135 71.5365 258.27 71.6849 258.567 71.7793C258.877 71.8873 259.201 71.9412 259.524 71.9547V72.4269H255.922V71.9547C256.071 71.9412 256.219 71.9142 256.354 71.8738C256.502 71.8333 256.651 71.7793 256.786 71.6984C256.948 71.5905 257.083 71.469 257.204 71.3206C257.325 71.1453 257.42 70.9699 257.501 70.7675C257.986 69.5669 258.513 68.2178 259.093 66.7203C259.673 65.2228 260.185 63.8873 260.644 62.7271H261.184L264.368 70.9834C264.422 71.1318 264.502 71.2802 264.597 71.4151C264.705 71.5365 264.826 71.6444 264.948 71.7254C265.069 71.7928 265.204 71.8468 265.352 71.8873C265.487 71.9277 265.636 71.9547 265.771 71.9547V72.4404ZM261.926 68.5281L260.469 64.8046L259.039 68.5146L261.926 68.5281Z" fill="#FFCC33"/>
<path d="M271.639 71.7524C271.815 71.9143 271.963 72.1167 272.057 72.3325C272.165 72.5888 272.219 72.8587 272.206 73.142C272.206 73.4523 272.138 73.7625 271.99 74.0458C271.842 74.3426 271.626 74.5855 271.356 74.7743C271.032 75.0037 270.668 75.1656 270.277 75.2735C269.764 75.3949 269.251 75.4624 268.725 75.4489C267.713 75.4489 266.958 75.3005 266.459 75.0037C265.987 74.7474 265.69 74.2482 265.703 73.7086C265.69 73.2769 265.892 72.8722 266.243 72.6293C266.648 72.346 267.133 72.1976 267.619 72.1976V72.0897C267.471 72.0492 267.336 71.9953 267.201 71.9413C267.066 71.8873 266.944 71.8199 266.823 71.7254C266.702 71.631 266.607 71.5231 266.54 71.3882C266.459 71.2398 266.432 71.0779 266.432 70.916C266.432 70.6732 266.526 70.4438 266.688 70.255C266.904 70.0256 267.16 69.8502 267.457 69.7423V69.6344C267.066 69.459 266.715 69.1892 266.459 68.8519C266.216 68.5281 266.095 68.1504 266.108 67.7457C266.095 67.1521 266.351 66.572 266.81 66.1942C267.282 65.7895 267.875 65.5872 268.617 65.5872C268.82 65.5872 269.022 65.6141 269.224 65.6546C269.427 65.6951 269.629 65.749 269.831 65.8165H272.152V66.4641H270.587V66.5045C270.749 66.6934 270.87 66.9092 270.965 67.1386C271.046 67.3544 271.086 67.5973 271.086 67.8266C271.086 68.4067 270.83 68.9464 270.371 69.3106C269.912 69.7153 269.319 69.9312 268.712 69.9177H267.889C267.767 69.9582 267.659 70.0256 267.565 70.12C267.457 70.2145 267.39 70.3629 267.403 70.4978C267.39 70.6462 267.444 70.7811 267.551 70.8755C267.646 70.97 267.767 71.0239 267.902 71.0509C268.051 71.0914 268.199 71.1184 268.361 71.1184C268.536 71.1318 268.712 71.1318 268.901 71.1453C269.089 71.1588 269.373 71.1588 269.71 71.1858C270.047 71.2128 270.304 71.2263 270.438 71.2263C270.654 71.2398 270.87 71.2937 271.059 71.3747C271.275 71.4691 271.464 71.5905 271.639 71.7524ZM271.113 73.3848C271.127 73.1689 271.059 72.9531 270.938 72.7642C270.803 72.5888 270.614 72.4809 270.412 72.427C270.29 72.4135 270.02 72.3865 269.629 72.3595C269.238 72.3325 268.779 72.3325 268.267 72.3325C267.781 72.427 267.43 72.5754 267.228 72.8047C267.012 73.0475 266.904 73.3443 266.917 73.6681C266.917 73.83 266.958 73.9784 267.025 74.1133C267.106 74.2752 267.228 74.4101 267.376 74.518C267.565 74.6529 267.781 74.7474 268.01 74.8013C268.334 74.8823 268.658 74.9227 268.981 74.9093C269.643 74.9093 270.169 74.7878 270.546 74.5315C270.924 74.2887 271.113 73.8974 271.113 73.3848ZM269.818 67.7996C269.818 67.2735 269.71 66.8553 269.494 66.545C269.292 66.2347 268.955 66.0593 268.59 66.0728C268.401 66.0728 268.213 66.1133 268.051 66.2077C267.902 66.3022 267.767 66.4236 267.686 66.5855C267.592 66.7474 267.524 66.9362 267.498 67.1251C267.457 67.341 267.444 67.5568 267.444 67.7727C267.43 68.2044 267.538 68.6361 267.767 68.9868C267.943 69.2836 268.266 69.459 268.617 69.459C268.981 69.4725 269.319 69.2971 269.508 68.9868C269.724 68.6361 269.831 68.2179 269.818 67.7996Z" fill="#FFCC33"/>
<path d="M278.061 66.6394C278.061 66.8552 278.007 67.0711 277.899 67.2464C277.791 67.4218 277.589 67.5297 277.373 67.5163C277.157 67.5297 276.955 67.4623 276.793 67.3139C276.671 67.206 276.604 67.0441 276.591 66.8822C276.591 66.7878 276.604 66.7068 276.617 66.6124C276.631 66.5314 276.644 66.4505 276.658 66.3695C276.388 66.383 276.132 66.4775 275.916 66.6259C275.619 66.8147 275.376 67.0576 275.187 67.3544V71.2262C275.187 71.3611 275.214 71.496 275.282 71.6039C275.349 71.7119 275.444 71.7928 275.565 71.8333C275.7 71.8872 275.849 71.9142 275.997 71.9412C276.172 71.9682 276.321 71.9817 276.456 71.9817V72.4269H272.948V71.9817L273.272 71.9547C273.366 71.9412 273.461 71.9277 273.555 71.9007C273.677 71.8738 273.771 71.7928 273.838 71.6849C273.906 71.5635 273.933 71.4286 273.933 71.2937V67.1925C273.933 67.0576 273.892 66.9092 273.838 66.7878C273.784 66.6528 273.69 66.5449 273.569 66.464C273.474 66.41 273.366 66.3695 273.272 66.3426C273.15 66.3156 273.015 66.3021 272.894 66.2886V65.8434L275.107 65.695L275.201 65.7894V66.7338H275.228C275.484 66.3965 275.795 66.1132 276.159 65.8974C276.442 65.722 276.766 65.6276 277.09 65.6141C277.346 65.6006 277.602 65.695 277.778 65.8839C277.98 66.1132 278.074 66.3695 278.061 66.6394Z" fill="#FFCC33"/>
<path d="M281.852 72.4403H278.641V71.9951L278.965 71.9681C279.059 71.9681 279.153 71.9412 279.248 71.9142C279.369 71.8872 279.464 71.8062 279.531 71.6983C279.599 71.5769 279.626 71.442 279.626 71.3071V67.2059C279.626 67.071 279.599 66.9361 279.531 66.8147C279.464 66.6933 279.369 66.5988 279.261 66.5179C279.14 66.4504 279.019 66.41 278.884 66.383C278.735 66.3425 278.587 66.329 278.438 66.3155V65.8703L280.786 65.7219L280.88 65.8164V71.2396C280.88 71.3745 280.907 71.5094 280.975 71.6309C281.042 71.7388 281.137 71.8197 281.258 71.8602C281.352 71.9007 281.447 71.9277 281.541 71.9546C281.649 71.9816 281.757 71.9951 281.852 72.0086V72.4403ZM281.015 63.0777C281.015 63.3206 280.934 63.5634 280.759 63.7523C280.61 63.9412 280.381 64.0491 280.138 64.0356C279.909 64.0356 279.693 63.9412 279.545 63.7658C279.383 63.6039 279.288 63.3745 279.288 63.1452C279.288 62.9024 279.369 62.673 279.545 62.4976C279.693 62.3223 279.909 62.2278 280.138 62.2278C280.381 62.2143 280.61 62.3088 280.772 62.4842C280.921 62.646 281.015 62.8619 281.015 63.0777Z" fill="#FFCC33"/>
<path d="M285.75 72.6157C284.793 72.6157 284.037 72.2919 283.484 71.6579C282.931 71.0238 282.661 70.1604 282.661 69.0946C282.661 68.6494 282.729 68.2042 282.877 67.786C283.025 67.3813 283.241 67.0036 283.511 66.6798C283.781 66.356 284.132 66.0862 284.509 65.9108C284.914 65.7085 285.359 65.614 285.818 65.614C286.466 65.614 287.005 65.7759 287.41 66.0862C287.815 66.383 288.044 66.8687 288.03 67.3678C288.03 67.5837 287.976 67.786 287.869 67.9614C287.747 68.1368 287.545 68.2447 287.329 68.2177C287.1 68.2312 286.884 68.1638 286.708 68.0154C286.573 67.9074 286.492 67.7455 286.492 67.5702C286.492 67.3543 286.519 67.152 286.573 66.9496C286.614 66.8012 286.641 66.6393 286.668 66.4774C286.587 66.3425 286.466 66.2346 286.304 66.1941C286.142 66.1402 285.966 66.1267 285.791 66.1267C285.575 66.1267 285.373 66.1671 285.17 66.2616C284.941 66.383 284.752 66.5584 284.604 66.7742C284.415 67.044 284.28 67.3543 284.199 67.6916C284.091 68.1368 284.037 68.5955 284.051 69.0676C284.051 69.9041 284.24 70.5921 284.604 71.1182C284.914 71.6174 285.467 71.9142 286.061 71.9142C286.452 71.9277 286.83 71.8197 287.154 71.5904C287.491 71.3341 287.761 71.0103 287.976 70.6326L288.408 70.9159C288.125 71.4285 287.72 71.8602 287.234 72.1705C286.803 72.4403 286.29 72.6022 285.75 72.6157Z" fill="#FFCC33"/>
<path d="M296.084 72.3189L293.912 72.4673L293.804 72.3729V71.5364H293.764C293.656 71.6444 293.534 71.7658 293.4 71.9007C293.251 72.0356 293.103 72.1435 292.941 72.2514C292.752 72.3594 292.563 72.4538 292.347 72.5213C292.091 72.5887 291.821 72.6292 291.551 72.6157C290.971 72.6157 290.513 72.4268 290.216 72.0356C289.919 71.6444 289.757 71.0912 289.757 70.3627V67.1924C289.757 67.0575 289.73 66.9091 289.663 66.7877C289.541 66.5718 289.325 66.4234 289.096 66.383C288.975 66.356 288.84 66.3425 288.705 66.329V65.8838L290.917 65.7219L291.025 65.8164V70.4302C291.025 70.9159 291.133 71.2666 291.349 71.5094C291.538 71.7388 291.821 71.8737 292.131 71.8737C292.361 71.8737 292.577 71.8332 292.792 71.7658C292.968 71.6983 293.13 71.6039 293.278 71.496C293.4 71.4015 293.508 71.3071 293.602 71.1992C293.683 71.1047 293.75 71.0103 293.818 70.9024V67.1385C293.818 67.0035 293.791 66.8686 293.723 66.7472C293.656 66.6258 293.575 66.5314 293.467 66.4504C293.359 66.383 293.238 66.356 293.103 66.356C292.941 66.3425 292.766 66.329 292.563 66.329V65.8838L294.978 65.7219L295.086 65.8164V71.0912C295.086 71.2261 295.113 71.361 295.18 71.4825C295.248 71.5904 295.342 71.6848 295.437 71.7523C295.531 71.8062 295.626 71.8332 295.72 71.8467C295.841 71.8602 295.963 71.8737 296.098 71.8737L296.084 72.3189Z" fill="#FFCC33"/>
<path d="M300.01 72.4404H296.759V71.9952L297.083 71.9682C297.177 71.9548 297.272 71.9413 297.366 71.9143C297.488 71.8738 297.582 71.8064 297.649 71.6984C297.717 71.577 297.744 71.4421 297.744 71.3072V63.5905C297.744 63.4286 297.703 63.2802 297.636 63.1318C297.568 62.9969 297.488 62.889 297.366 62.7946C297.231 62.7136 297.083 62.6731 296.921 62.6462C296.746 62.6057 296.57 62.5787 296.395 62.5652V62.1335L298.904 61.9851L298.998 62.093V71.2128C298.998 71.3477 299.025 71.4826 299.079 71.604C299.147 71.7119 299.241 71.7929 299.363 71.8333C299.457 71.8738 299.552 71.9143 299.66 71.9413C299.767 71.9683 299.875 71.9817 299.983 71.9817L300.01 72.4404Z" fill="#FFCC33"/>
<path d="M304.961 72.1437C304.665 72.2651 304.395 72.373 304.138 72.454C303.828 72.5484 303.504 72.5889 303.181 72.5754C302.627 72.5754 302.236 72.4405 302.007 72.1572C301.778 71.8739 301.67 71.4826 301.67 70.97V66.4641H300.469V65.8165H301.697V63.7524H302.924V65.8165H304.827V66.4641H302.938V70.174C302.938 70.4034 302.951 70.6462 302.965 70.8755C302.978 71.0509 303.032 71.2128 303.113 71.3612C303.181 71.4961 303.302 71.5905 303.437 71.658C303.626 71.7389 303.815 71.7659 304.017 71.7659C304.125 71.7659 304.3 71.7524 304.516 71.739C304.678 71.7255 304.826 71.6985 304.975 71.658L304.961 72.1437Z" fill="#FFCC33"/>
<path d="M312.745 72.3189L310.573 72.4673L310.466 72.3729V71.5364H310.425C310.317 71.6444 310.196 71.7658 310.061 71.9007C309.926 72.0356 309.764 72.1435 309.602 72.2514C309.413 72.3594 309.224 72.4538 309.022 72.5213C308.766 72.5887 308.496 72.6292 308.226 72.6157C307.632 72.6157 307.187 72.4268 306.877 72.0356C306.567 71.6444 306.418 71.0912 306.418 70.3627V67.1924C306.418 67.0575 306.391 66.9091 306.324 66.7877C306.256 66.6663 306.162 66.5718 306.054 66.5044C305.96 66.4504 305.852 66.41 305.744 66.383C305.622 66.356 305.487 66.3425 305.353 66.329V65.8838L307.565 65.7219L307.673 65.8164V70.4302C307.673 70.9159 307.781 71.2666 307.997 71.5094C308.186 71.7388 308.469 71.8737 308.779 71.8737C309.009 71.8737 309.224 71.8332 309.44 71.7658C309.616 71.6983 309.777 71.6039 309.926 71.496C310.047 71.4015 310.155 71.3071 310.25 71.1992C310.331 71.1047 310.398 71.0103 310.466 70.9024V67.1385C310.466 67.0035 310.439 66.8686 310.371 66.7472C310.304 66.6258 310.223 66.5314 310.115 66.4504C310.007 66.383 309.885 66.356 309.751 66.356C309.589 66.3425 309.413 66.329 309.211 66.329V65.8838L311.639 65.7219L311.747 65.8164V71.0912C311.747 71.2261 311.774 71.361 311.842 71.4825C311.909 71.5904 312.003 71.6848 312.098 71.7523C312.192 71.8062 312.287 71.8332 312.381 71.8467C312.503 71.8602 312.624 71.8737 312.759 71.8737L312.745 72.3189Z" fill="#FFCC33"/>
<path d="M318.654 66.6394C318.654 66.8552 318.6 67.0711 318.492 67.2464C318.384 67.4218 318.182 67.5297 317.966 67.5163C317.75 67.5297 317.548 67.4623 317.386 67.3139C317.265 67.206 317.184 67.0441 317.184 66.8822C317.184 66.7878 317.197 66.7068 317.211 66.6124C317.224 66.5314 317.238 66.4505 317.251 66.3695C316.981 66.383 316.725 66.4775 316.509 66.6259C316.212 66.8147 315.97 67.0576 315.781 67.3544V71.2262C315.781 71.3611 315.808 71.496 315.875 71.6039C315.943 71.7119 316.037 71.7928 316.158 71.8333C316.293 71.8872 316.442 71.9142 316.59 71.9412C316.766 71.9682 316.927 71.9817 317.049 71.9817V72.4269H313.541V71.9817L313.865 71.9547C313.959 71.9547 314.054 71.9277 314.148 71.9007C314.27 71.8738 314.364 71.7928 314.432 71.6849C314.499 71.5635 314.526 71.4286 314.526 71.2937V67.1925C314.526 67.0576 314.486 66.9092 314.432 66.7878C314.378 66.6528 314.283 66.5449 314.162 66.464C314.067 66.41 313.959 66.3695 313.865 66.3426C313.744 66.3156 313.609 66.3021 313.487 66.2886V65.8434L315.7 65.695L315.794 65.7894V66.7338H315.821C316.078 66.3965 316.388 66.1132 316.752 65.8974C317.035 65.722 317.359 65.6276 317.683 65.6141C317.939 65.6006 318.196 65.695 318.371 65.8839C318.573 66.1132 318.668 66.3695 318.654 66.6394Z" fill="#FFCC33"/>
<path d="M325.13 70.8754C324.874 71.3881 324.482 71.8198 324.01 72.1436C323.524 72.4674 322.971 72.6292 322.391 72.6157C321.906 72.6292 321.42 72.5348 320.988 72.3324C320.597 72.1571 320.26 71.8872 319.99 71.5635C319.72 71.2262 319.531 70.8485 319.41 70.4303C319.275 69.9851 319.221 69.5264 319.221 69.0542C319.221 68.6225 319.288 68.1908 319.423 67.7861C319.558 67.3813 319.761 67.0036 320.03 66.6663C320.287 66.3426 320.61 66.0862 320.988 65.8974C321.379 65.695 321.825 65.6006 322.27 65.6006C322.702 65.5871 323.12 65.668 323.511 65.8299C323.835 65.9648 324.132 66.1807 324.347 66.4505C324.563 66.7068 324.712 67.0171 324.806 67.3409C324.914 67.7051 324.968 68.0829 324.955 68.4471V68.8923H320.557C320.557 69.297 320.597 69.6883 320.678 70.0795C320.745 70.4168 320.88 70.7405 321.069 71.0238C321.245 71.2802 321.474 71.496 321.757 71.6444C322.067 71.8063 322.418 71.8738 322.769 71.8738C323.133 71.8873 323.498 71.7793 323.808 71.5904C324.105 71.4016 324.374 71.0643 324.644 70.5786L325.13 70.8754ZM323.646 68.3392C323.646 68.0694 323.619 67.7996 323.578 67.5297C323.551 67.2869 323.484 67.0441 323.376 66.8147C323.282 66.6124 323.133 66.437 322.958 66.3156C322.756 66.1807 322.513 66.1132 322.27 66.1132C321.811 66.1132 321.366 66.3291 321.096 66.7068C320.786 67.098 320.61 67.6377 320.583 68.3392H323.646Z" fill="#FFCC33"/>
</svg>
